<svg xmlns="http://www.w3.org/2000/svg" viewBox="0 0 500 500"><g id="freepik--Floor--inject-3"><ellipse id="freepik--floor--inject-3" cx="250" cy="372.09" rx="240.88" ry="119.85" style="fill:#fafafa"></ellipse></g><g id="freepik--Plant--inject-3"><g id="freepik--Plants--inject-3"><path d="M461.33,309.35a57.56,57.56,0,0,0-2.21,8.85c-1,5.77-.29,25.82,0,31.63v0l-1,.32s0,0,0,0c-1.07-5.88-1.2-26.74,0-32.58a63.08,63.08,0,0,1,2.34-8.54,31.9,31.9,0,0,1,4.06-8.56c.14-.18.32.2.28.32C463.68,303.67,462.31,306.43,461.33,309.35Z" style="fill:#BA68C8"></path><path d="M462.31,306.14c2.53-1.6,5.77-4.25,7.06-10.51s3-11.7,2.5-13.05-6.55,4.63-9.53,10.76S460.7,303,462.31,306.14Z" style="fill:#BA68C8"></path><path d="M464.88,310.76c-.53-1,1.27-4,5.82-6.71s11.23-4.44,11.8-3.86-4.28,6.46-9.33,8.78S465.37,311.68,464.88,310.76Z" style="fill:#BA68C8"></path><path d="M445.46,290.38c.7-.61,7.08,5.41,9.36,11.39,2,5.19,2.42,8.26,1.79,9.31,0,.06.08.12.12.19a15.59,15.59,0,0,1,1.21,2.78c.59,1.83,1.12,4.07.51,6,0,.12-.16,0-.17-.08-.43-1.75-.64-3.54-1.18-5.26a21.6,21.6,0,0,0-1.31-3.19c-1.43-.08-4.31-2.42-6.8-7.25C446.21,298.8,444.75,291,445.46,290.38Z" style="fill:#BA68C8"></path><path d="M460.19,325.21c-.62-.93.88-4.09,5.13-7.25s10.75-5.52,11.37-5-3.62,6.84-8.43,9.65S460.77,326.07,460.19,325.21Z" style="fill:#BA68C8"></path><path d="M458.56,315.74a3.52,3.52,0,0,1,1.15-1.91,13.6,13.6,0,0,1,2.07-1.72,26.06,26.06,0,0,1,5.08-2.64c.18-.07.38.33.23.44-1.49,1.08-3.07,2-4.6,3a14.47,14.47,0,0,0-2,1.58c-.28.28-.57.57-.83.87s-.49.7-.85.74C458.66,316.13,458.55,315.85,458.56,315.74Z" style="fill:#BA68C8"></path><path d="M459.34,325.08a12.24,12.24,0,0,1,1.71-1.33,7.81,7.81,0,0,1,1.95-.89c.17-.05.32.25.18.36-1.09.8-2.16,1.65-3.17,2.56a13.42,13.42,0,0,0-1.34,1.38,3,3,0,0,0-.68,1.4c-.08.42-.52.5-.64,0C457,327.24,458.48,325.91,459.34,325.08Z" style="fill:#BA68C8"></path><path d="M457.83,333.06l-.63.79c-1.66,0-6.3-2.7-9.28-6.82-3.48-4.82-4.49-9.84-4.2-10.55s6.81,2.49,10.63,8.15C456.61,328,457.8,331.63,457.83,333.06Z" style="fill:#BA68C8"></path><g style="opacity:0.65"><path d="M461.33,309.35a57.56,57.56,0,0,0-2.21,8.85c-1,5.77-.29,25.82,0,31.63v0l-1,.32s0,0,0,0c-1.07-5.88-1.2-26.74,0-32.58a63.08,63.08,0,0,1,2.34-8.54,31.9,31.9,0,0,1,4.06-8.56c.14-.18.32.2.28.32C463.68,303.67,462.31,306.43,461.33,309.35Z" style="fill:#fff"></path><path d="M462.31,306.14c2.53-1.6,5.77-4.25,7.06-10.51s3-11.7,2.5-13.05-6.55,4.63-9.53,10.76S460.7,303,462.31,306.14Z" style="fill:#fff"></path><path d="M464.88,310.76c-.53-1,1.27-4,5.82-6.71s11.23-4.44,11.8-3.86-4.28,6.46-9.33,8.78S465.37,311.68,464.88,310.76Z" style="fill:#fff"></path><path d="M445.46,290.38c.7-.61,7.08,5.41,9.36,11.39,2,5.19,2.42,8.26,1.79,9.31,0,.06.08.12.12.19a15.59,15.59,0,0,1,1.21,2.78c.59,1.83,1.12,4.07.51,6,0,.12-.16,0-.17-.08-.43-1.75-.64-3.54-1.18-5.26a21.6,21.6,0,0,0-1.31-3.19c-1.43-.08-4.31-2.42-6.8-7.25C446.21,298.8,444.75,291,445.46,290.38Z" style="fill:#fff"></path><path d="M460.19,325.21c-.62-.93.88-4.09,5.13-7.25s10.75-5.52,11.37-5-3.62,6.84-8.43,9.65S460.77,326.07,460.19,325.21Z" style="fill:#fff"></path><path d="M458.56,315.74a3.52,3.52,0,0,1,1.15-1.91,13.6,13.6,0,0,1,2.07-1.72,26.06,26.06,0,0,1,5.08-2.64c.18-.07.38.33.23.44-1.49,1.08-3.07,2-4.6,3a14.47,14.47,0,0,0-2,1.58c-.28.28-.57.57-.83.87s-.49.7-.85.74C458.66,316.13,458.55,315.85,458.56,315.74Z" style="fill:#fff"></path><path d="M459.34,325.08a12.24,12.24,0,0,1,1.71-1.33,7.81,7.81,0,0,1,1.95-.89c.17-.05.32.25.18.36-1.09.8-2.16,1.65-3.17,2.56a13.42,13.42,0,0,0-1.34,1.38,3,3,0,0,0-.68,1.4c-.08.42-.52.5-.64,0C457,327.24,458.48,325.91,459.34,325.08Z" style="fill:#fff"></path><path d="M457.83,333.06l-.63.79c-1.66,0-6.3-2.7-9.28-6.82-3.48-4.82-4.49-9.84-4.2-10.55s6.81,2.49,10.63,8.15C456.61,328,457.8,331.63,457.83,333.06Z" style="fill:#fff"></path></g><path d="M475.31,329.31a11.57,11.57,0,0,0,8.06-5.63c2.69-4.18,5.48-7.63,5.47-8.76s-6,1.52-9.92,5.13S475,326.55,475.31,329.31Z" style="fill:#BA68C8"></path><path d="M470.36,332c-.91.26-2-4.08-1.14-8.06s3-6.79,3.5-7,1.53,6.14.67,9.2S471,331.82,470.36,332Z" style="fill:#BA68C8"></path><path d="M465.11,340c-.94.49-3.15-4-3.08-8.66s1.79-8.21,2.31-8.52,3.07,6.43,2.81,10S465.72,339.66,465.11,340Z" style="fill:#BA68C8"></path><path d="M470,338.8c-.67-.83,3.34-3.89,7.88-4.72s8.41.13,8.81.58-4,3.94-9.27,4.73C473.87,339.92,470.45,339.34,470,338.8Z" style="fill:#BA68C8"></path><path d="M477.94,326.57a65.57,65.57,0,0,0-8.47,9.07c.08-.18.15-.37.22-.55a20.3,20.3,0,0,0,.83-2.93,6.62,6.62,0,0,0,.23-3c-.05-.16-.23,0-.27.07a18,18,0,0,0-.9,3.09c-.26.89-.56,1.78-.87,2.66-.43,1.21-1,2.38-1.52,3.55-.7.93-1.38,1.88-2,2.84a10.71,10.71,0,0,0,.22-2.19c0-.41,0-.81-.06-1.22a2.22,2.22,0,0,0-.21-1c-.08-.15-.28.05-.31.15a11.8,11.8,0,0,0-.22,2.16c-.08.71-.16,1.43-.3,2.14a15.69,15.69,0,0,1-.65,2.15c-.09.18-.23.47-.31.65-.55.92-1.72,3-2.52,4.5l.72,1c.74-1.53,1.54-3,2.42-4.48s1.87-3.06,2.51-4a18.82,18.82,0,0,1,1.67-1.27,12.76,12.76,0,0,1,2-1.16c.78-.37,1.61-.61,2.4-1,.12-.06.31-.4.06-.4a6.58,6.58,0,0,0-2.5.59,12.61,12.61,0,0,0-2.13,1.1c.5-.69,1-1.38,1.53-2.05,2.77-3.55,6-6.77,8.64-10.38C478.21,326.59,478.1,326.44,477.94,326.57Z" style="fill:#BA68C8"></path></g></g><g id="freepik--Shadows--inject-3"><ellipse id="freepik--Shadow--inject-3" cx="399.5" cy="375.65" rx="77.97" ry="45.01" style="fill:#e0e0e0"></ellipse><path id="freepik--shadow--inject-3" d="M140.27,377.69l100-57.59a6.78,6.78,0,0,1,6.11,0l148.12,85.52c1.69,1,1.69,2.56,0,3.53L294.5,466.74a6.72,6.72,0,0,1-6.11,0L140.27,381.22C138.58,380.25,138.58,378.67,140.27,377.69Z" style="fill:#e0e0e0"></path><polygon id="freepik--shadow--inject-3" points="101.48 357.14 21.43 403.36 121.67 461.36 201.72 415.01 101.48 357.14" style="fill:#e0e0e0"></polygon></g><g id="freepik--Character--inject-3"><g id="freepik--Chartacter--inject-3"><g id="freepik--Bottom--inject-3"><path d="M442.84,350.56c-.83-12.07-1.35-16.81-2.5-38.37h0c-.1-5.53-.3-11.45-.67-16.71-1.25-17.7-3.53-21.91-5.05-28s-2.75-17.43-5.07-55.48a196.76,196.76,0,0,0-7-43H368c-5.6,23.86-7.2,75.52-7,100.11.08,12.54.22,77.31-.09,82.49a17.45,17.45,0,0,1-5.25,11.23c-4.49,4.82-7.71,6.77-13.34,11,.81,2.15,12.61,2.07,16,.43A125.1,125.1,0,0,0,372.36,366a16.62,16.62,0,0,0,6.74-13.55,11.94,11.94,0,0,0,.16-1.35c.09-3,7.69-45.94,9.61-56.19,1.48-8-.15-23.38-.15-23.38l5.78-37.91s6.52,25.16,10,40.49c2.55,11.27,8.88,29.07,13,47.08h0c4.84,18.32,5.22,19.93,8.08,33.05,1.44,6.61,2.74,32.83,4.35,37.41,5.17,14.76,17.43,4.81,18.09-3.35C448.49,382.86,443,353.16,442.84,350.56Z" style="fill:#ffa8a7"></path><path d="M331,380.92c-.32,0-.7,3.45,1,4.87,2,1.64,7.81,4.26,15.37,3.08s11.6-3.62,14.57-6.24,7.13-6.31,10.54-7.15c3.16-.79,8.3-2.71,9.3-3.73s.74-5.38.74-5.38Z" style="fill:#263238"></path><path d="M379.26,351.09a2.32,2.32,0,0,1,1.26,1.46c.26,1.2.31,2.74.87,4.71.76,2.74,1.37,8.37,1,10.62s-7.23,4.34-10.51,5.69a42.19,42.19,0,0,0-10.58,7.07c-3.49,3-10.91,6.17-15.85,6.36-7.54.31-12.48-1.61-14-4.29-2-3.3-.52-6.89,8-11.13,1.62-.8,7.3-4.36,9.23-5.65a44.51,44.51,0,0,0,5.79-4.54,36.42,36.42,0,0,0,2.58-2.69,12,12,0,0,0,2.12-2.86c.09-.23.15-.5.24-.74a13.07,13.07,0,0,0,.51-2.05c.12-.72.18-1.77.86-2.22a5.78,5.78,0,0,1,3.09-.45,29.18,29.18,0,0,1,4.68,1c1.79.55,3.12.91,3.91,2.09a6.35,6.35,0,0,1,.79,3.12c0,.51,0,1,.06,1.52,0,.22-.08.61.22.51s.59-.85.7-1.11c.22-.58.36-1.19.61-1.75a5,5,0,0,1,1-1.86c1.41-1.25,2.81-1.05,3.22-1.48C379.1,352.44,379.23,351.52,379.26,351.09Z" style="fill:#37474f"></path><path d="M338.08,372.28c10.94.47,14.53,8.73,15.1,12.9a26.06,26.06,0,0,1-7.72,1.82c-7.54.31-12.79-1.6-14.36-4.27C329.25,379.61,330.41,375.41,338.08,372.28Z" style="fill:#fafafa"></path><path d="M354.43,373.58a.59.59,0,0,0,.33-.13.54.54,0,0,0,.06-.76c-1.57-1.82-6-5.78-9.95-5.24a.53.53,0,1,0,.14,1.05c3.7-.48,7.76,3.45,9,4.89A.54.54,0,0,0,354.43,373.58Z" style="fill:#f0f0f0"></path><path d="M359.06,370.72a.62.62,0,0,0,.34-.13.55.55,0,0,0,.05-.76c-1.57-1.82-6-5.79-9.95-5.25a.53.53,0,0,0-.45.6.52.52,0,0,0,.59.46c3.7-.49,7.76,3.44,9,4.89A.55.55,0,0,0,359.06,370.72Z" style="fill:#f0f0f0"></path><path d="M363.34,367.47a.46.46,0,0,0,.33-.13.53.53,0,0,0,.06-.75c-1.57-1.82-6-5.78-10-5.25a.54.54,0,0,0-.46.6.53.53,0,0,0,.6.46c3.69-.49,7.76,3.44,9,4.89A.53.53,0,0,0,363.34,367.47Z" style="fill:#f0f0f0"></path><path d="M367.53,364.23a.52.52,0,0,0,.39-.87c-2.16-2.59-6.9-5.82-10.85-5.28a.53.53,0,0,0-.46.6.54.54,0,0,0,.6.46c3.56-.48,8,2.61,9.9,4.9A.49.49,0,0,0,367.53,364.23Z" style="fill:#f0f0f0"></path><path d="M428.16,387.55c.52,5,1.45,8.33,3.37,11.2s5.33,3.66,8.7,2.64,7.65-3.52,8.44-7.9,1.23-7.4.25-12Z" style="fill:#263238"></path><path d="M442.84,350.56c1.41.05,1.33,6.75,2.44,13.48,1.19,7.22,2.36,10.06,3.4,16,1.18,6.77.19,9.85-2,14.07S436.21,402.7,431.8,397c-3.6-4.65-4-10-4-16.77a99.1,99.1,0,0,0-1.68-17c-.83-5.46-2.17-10.34-1-11a50.17,50.17,0,0,0,1.45,5.37c.16.37.74,1.3.9-.13,0-.43-.13-1.4-.11-1.82a1.79,1.79,0,0,1,1.2-1.68,13.65,13.65,0,0,1,5.94-1.58c2.75-.13,5.12-.33,6.69.39.94.43,1,1.31,1.1,2.16.16,1,.21,1.65.45,1.44C443.28,356,442.72,351.3,442.84,350.56Z" style="fill:#37474f"></path><path d="M449.24,383.94a16.93,16.93,0,0,1-2.18,10.45c-2.2,4.21-11.13,8.66-15.55,2.95-2.2-2.83-2.9-6.27-3.34-9.8C430.46,382.9,445.14,380.25,449.24,383.94Z" style="fill:#fafafa"></path><path d="M430.91,380a.49.49,0,0,0,.17-.06c.06,0,6.45-3,12.85-1.82a.52.52,0,0,0,.19-1c-6.77-1.25-13.29,1.8-13.53,1.93a.53.53,0,0,0-.22.7A.54.54,0,0,0,430.91,380Z" style="fill:#f0f0f0"></path><path d="M443.4,373.09a.52.52,0,0,0,.07-1c-6.41-1.86-13.27,1.65-13.52,1.8a.52.52,0,0,0-.19.71.52.52,0,0,0,.71.19c.06,0,6.75-3.44,12.7-1.7A.6.6,0,0,0,443.4,373.09Z" style="fill:#f0f0f0"></path><path d="M443,368.32a.54.54,0,0,0,.43-.37.52.52,0,0,0-.35-.65c-7-2.18-13.54,1.62-13.78,1.78a.52.52,0,0,0-.14.72.51.51,0,0,0,.72.14c.06,0,6.33-3.67,12.89-1.64A.62.62,0,0,0,443,368.32Z" style="fill:#f0f0f0"></path><path d="M442.41,363.63a.52.52,0,0,0,.42-.36.53.53,0,0,0-.33-.66c-6.61-2.15-13.61,1.76-13.87,1.93a.53.53,0,0,0-.16.72.52.52,0,0,0,.72.16c.06,0,6.85-3.81,13-1.81A.65.65,0,0,0,442.41,363.63Z" style="fill:#ebebeb"></path><path d="M426.86,169c2,14.88,2.69,18.53,4.91,51.68,2.16,32.14,2.34,36.85,2.65,40.72.73,8.89,4.67,11.95,5.81,32.91,1.06,19.2,1.69,42.89,1.69,42.89s-2.59,3.55-9.9,4.21c-6.75.6-10.13-1.93-10.13-1.93s-12.51-44.76-16-56c-4.74-15.29-11.39-42.15-11.39-42.15L390.09,272s1.42,14.72-1.44,28.62c-3.54,17.23-7.15,36-7.15,36a23,23,0,0,1-10.17,1.26c-7.89-.79-10.53-2.63-10.53-2.63s-2.22-52.06-2.22-71.08.24-65.56,1.35-95.15Z" style="fill:#37474f"></path><path d="M394.5,241.31,389,208s-11-2.9-18.08-10.3c.53,5.51,10.32,12.58,14.9,13.68L392,240.9,390.09,272Z" style="fill:#263238"></path><path d="M407.28,174.17a45.55,45.55,0,0,1,4.13,8.73,85.35,85.35,0,0,1,2.75,9.25,95.17,95.17,0,0,1,1.74,9.48,63.12,63.12,0,0,1,.64,9.62c-.77-3.13-1.49-6.23-2.2-9.34s-1.4-6.21-2.15-9.29-1.49-6.17-2.28-9.25S408.24,177.24,407.28,174.17Z" style="fill:#263238"></path><path d="M411.48,175.33a34,34,0,0,1,4.35,4.88,46.66,46.66,0,0,1,3.54,5.49,42.15,42.15,0,0,1,2.68,6,25.92,25.92,0,0,1,1.48,6.39l-2.93-5.76c-1-1.89-2-3.78-3-5.64s-2.06-3.72-3.08-5.6S412.43,177.31,411.48,175.33Z" style="fill:#263238"></path><path d="M407.08,213.38c1.39,10,2.64,20,3.89,29.92s3.69,21,5.52,30.82,11.72,51.49,13.24,61.43c-2.3-9.8-13.3-51.15-15.23-61.06s-4.12-21-5.09-31S407.69,223.42,407.08,213.38Z" style="fill:#263238"></path><path d="M369.78,213.81,368.14,240c-.25,4.37-.53,8.73-.72,13.1s-.46,8.75-.39,13.06.36,46.22-.23,55c-1-9.76-1.5-46.12-1.8-54.95,0-8.86.78-17.57,1.57-26.31S368.43,222.47,369.78,213.81Z" style="fill:#263238"></path><path d="M382.32,332.4l-1.49,9.12s-3.65,2.33-11.31,1.54-8.77-3.27-8.77-3.27v-8.58s1.84,1.78,8.84,2.57A30.17,30.17,0,0,0,382.32,332.4Z" style="fill:#37474f"></path><path d="M441.76,330.86l.68,9.21s-3,3.12-10.64,4.14-9.29-1.14-9.29-1.14l-2-8.34s2.2,1.31,9.19.45A30.2,30.2,0,0,0,441.76,330.86Z" style="fill:#37474f"></path></g><g id="freepik--Top--inject-3"><g id="freepik--aRM--inject-3"><polygon points="266.6 67.38 197.17 18.88 197.1 18.92 197.1 159.84 197.17 159.81 286.15 94.34 266.6 67.38" style="fill:#BA68C8;opacity:0.1"></polygon><path d="M372.49,89.92c-8.12,1.5-12.92,3.34-19.35,12.89-5.41,8-16.46,22.49-16.46,22.49s-14.79-12.9-17-16.69c-3.3-5.63-27.79-4.31-22.15,3.79,1.57,2.27,6.09,3.86,8.46,6.89,5.67,7.28,11.72,18.58,17.19,25.25,5.86,7.14,11.15,11.12,14.22,11.12,3.84,0,9.57-6.23,11.19-8.09,6.44-7.41,19.78-23.13,19.78-23.13Z" style="fill:#ffa8a7"></path><path d="M311.56,112.48a3,3,0,0,1-1.3-1.43,6.24,6.24,0,0,1-.52-1.9c-.24-1.46-.43-2.93-.65-4.39s-.36-2.75-.61-4.12a5.38,5.38,0,0,0-1.41-3c-.5-.47-1.49.16-.92.7a5.71,5.71,0,0,1,1.27,3.48c.24,1.6.48,3.19.71,4.79a21,21,0,0,0,.81,4.31,3.23,3.23,0,0,0,2.61,2.17C312,113.16,311.84,112.58,311.56,112.48Z" style="fill:#f28f8f"></path><path d="M372.49,89.2C364.28,90.74,360.94,91.9,356,98s-15.7,22.18-15.7,22.18a28.28,28.28,0,0,0,6.79,11.18,33.86,33.86,0,0,0,9.74,6.81l12.83-13.7Z" style="fill:#455a64"></path><g id="freepik--barcode-lector--inject-3"><path d="M307,80.47c-1.37.82-1,3.37.11,9.48s3.08,19.35,3.08,19.35-3.11,1.33-5.56,2.47-6.67,2.17-8.71.23.12-4.29,3.48-5.89l-4.64-16.42s-.11-3,5-5.81S307,80.47,307,80.47Z" style="fill:#37474f"></path><path d="M296.76,86c-2.09,2-2,3.68-2,3.68l4.64,16.42c.38,1.33,1.54,4,3.61,2.8s4.25-6.34,2.14-12.7A17.46,17.46,0,0,0,296.76,86Z" style="fill:#455a64"></path><path d="M307,80.47s-2.2.55-7.28,3.41-5,5.81-5,5.81l.41,1.45c1.86-1.27,4.56-3.17,6.7-5,2.56-2.15,3.39-3.09,4.27-3.73C306.16,81.42,306.41,80.8,307,80.47Z" style="opacity:0.4"></path><path d="M298.75,66.22c.15-.57-.59-.84-3.33-1.31-6.59-1.12-14.3-1.59-22.28.83l-2.05.58L288.28,83l-.83,3.31,16.45-4.68c4.14-1.18,5.69-2.64,6.25-4.86l.29-1.17-6.5-6.3Z" style="fill:#455a64"></path><path d="M308.51,69.59c-1.28-1.19-4.24-2-6.58-2.57-1.76-.43-3.18-.8-3.18-.8s-6.7,1.29-2.69,5.32,15.08,1.21,14.09,5.22C311.22,72.51,310.74,71.69,308.51,69.59Z" style="fill:#37474f"></path><path d="M295.9,67.37h0c-1.18.83-1.85,2.16.16,4.17,1.42,1.43,3.74,2,6.09,2.31a11,11,0,0,1-5.64-3.57C295.87,69.32,295.34,68,295.9,67.37Z" style="fill:#BA68C8"></path><path d="M305.43,81.13c-.4,1.61-10.27,8.61-15.83,11.66a46.7,46.7,0,0,1-4.76,2.3,6.17,6.17,0,0,1-6.65-1.26l-10.63-10.3a6.19,6.19,0,0,1-1.69-5.93l1.05-4.15A4.5,4.5,0,0,0,266,69.9,1.87,1.87,0,0,1,267,67c1.17-.34,2.52-.73,3.69-1,2.45-.68,5.32,1.56,11.68,7.78s7.54,9.3,6.85,12Z" style="fill:#37474f"></path><path d="M289.25,85.79c-.77,3.07-1.44,7-2.67,8.55,1.05-.88,1.49-1,3.43-8.76Z" style="fill:#263238"></path><path d="M266,69.9a4.5,4.5,0,0,1,.89,3.55l-1.05,4.15a6.19,6.19,0,0,0,1.69,5.93l10.63,10.3a6.17,6.17,0,0,0,6.65,1.26,46.7,46.7,0,0,0,4.76-2.3l1.3-.74c-.1,0-6.27,2.91-8.09,2.81-2.46-.13-3.68-1-6.11-3.44-2.63-2.63-7.66-7.63-8.83-9-.42-.49-.9-1.84-.15-2.3,1.77-1.08,3.82-1,4.28-.57l11.33,11c.7-2.8-.14-5.57-3.5-9.42a113.49,113.49,0,0,0-11.24-10.71c-2.49-2.06-2.51-2.85-1.56-3.41A1.87,1.87,0,0,0,266,69.9Z" style="fill:#263238"></path><path d="M283.33,90.56s.83-2.56-1.38-5.91c-2.54-3.83-8.12-8.89-10.18-10.88l-1.12,4.5Z" style="fill:#BA68C8"></path><path d="M285.3,72l1.31,1.27a4.21,4.21,0,0,0,3.64,1c1.12-.32,1.31-1.28.41-2.14l-1.31-1.28a4.17,4.17,0,0,0-3.64-1C284.59,70.15,284.41,71.11,285.3,72Z" style="fill:#263238"></path></g><path d="M306.41,86l.74,4.62,5.7.62C310.45,89,306.41,86,306.41,86Z" style="fill:#f28f8f"></path><path d="M308.07,106a3.11,3.11,0,0,0-1.64-2.81c2.13-.47,2.38-1.49,2.23-2.53s-1.84-2.17-1.84-2.17a2.14,2.14,0,0,0,1.33-1.12c.29-.84-.59-2.33-2.07-3.08s-4.19-.26-5.75-.4-5.26-3-5.26-3l-.34-1.21-4.63,2.84a2.12,2.12,0,0,1,.5,1.86c-.27,1.07-1.08,2.52-.47,3.54a2.24,2.24,0,0,1,.43,2.26,3.13,3.13,0,0,0,0,3,2.21,2.21,0,0,1,0,1.87,2.14,2.14,0,0,0,.7,2.53,31.23,31.23,0,0,0,5.84,3.46c1.82.62,2.06.3,4-.12s3.77-.93,3.79-1.65-.75-1.29-1.66-1.59c.48-.12,1-.24,1.42-.34C306.69,106.81,307.86,106.77,308.07,106Z" style="fill:#f28f8f"></path><path d="M319.67,108.61c-3.58-5.62-2.74-13.78-4.28-15.63s-8.63-4.59-10-4.61c-2.17,0-5.36,3.73-7.39,6.12-1.4,1.65.46,2.62,2.07,2.63a7.93,7.93,0,0,0,5-2.05l3,1.36s2.24,14.81,2.33,14.47S319.67,108.61,319.67,108.61Z" style="fill:#ffa8a7"></path><path d="M336.68,125.3c3,2.85,6.87,6.94,7.57,10.92,1.49-5.34-3.61-10.53-5.86-13.17Z" style="fill:#f28f8f"></path></g><path id="freepik--Chest--inject-3" d="M407.93,86.43c4.2.87,9.53,1.95,14.88,3.43s6.14,1.8,7.88,2.41c0,0,2.85,12.25,1.18,41.6-.25,4.35-3.4,16-3.94,25a143.89,143.89,0,0,0,.76,28.12S418,197.33,388.3,195.09C365,193.34,359,183.17,359,183.17s.26-37.25.87-54.43c.79-22.57,7.63-35.6,12.66-39.54l15.29-2.55Z" style="fill:#455a64"></path><g id="freepik--Head--inject-3"><path d="M414,38.21s3.6.27,5.95,4.8c1.19,2.28,2,6.43-1.21,18.29A48,48,0,0,1,413,74.4a5.91,5.91,0,0,1-3.41,2.72l.24-9.12.34-6.36s-5.13-4.65-5.57-9.22c-.57-5.87,1.73-9.2,1.73-9.2Z" style="fill:#37474f"></path><path d="M415.25,38.51c-.89-5.12-7.4-11.24-19.94-11.91-10.28-.55-16,3.17-19.87,9-4,6.06-1.22,13.75-1.22,13.75l32.29-2.11Z" style="fill:#37474f"></path><path d="M418.2,70.67c-4.72,2.3-6.88-1.44-6.88-1.44L410.61,88c-9.07,12.14-33.29,7.75-23.36-1.34l0-4.3a27.05,27.05,0,0,1-4.09-.4c-4.18-.66-7.11-3.43-8.35-8-1.84-6.7-1.28-21.23-.17-29.15A8.21,8.21,0,0,1,378.55,39c5-2.48,9.67,1.1,16.66,3.83,2.9,1.13,9.93,1.62,11.78.75-2.44,2.7-2.42,11.21,1.18,14.67a7.73,7.73,0,0,0,1.8,2.34c1.53,1.34,2.78-2.1,4.07-3.45a5.28,5.28,0,0,1,8.2,1.89A8.59,8.59,0,0,1,418.2,70.67Z" style="fill:#ffa8a7"></path><path d="M387.25,86.7s-13.18,6.33-17.1,21.35-4.95,58.32-5.09,72.56,0,19.54,0,19.54,0-1.17-8.14-4.46c0-16.7,1.25-72.64,3.61-83.88,3.9-18.54,12-22.61,12-22.61Z" style="fill:#BA68C8"></path><path d="M357.5,162.61c-.05,1.93-.1,3.84-.15,5.71a35.31,35.31,0,0,0,7.85,3.49c0-1.77.09-3.67.14-5.66A57.58,57.58,0,0,1,357.5,162.61Z" style="fill:#fafafa"></path><path d="M357.16,177c0,1.78-.07,3.5-.1,5.15a28.57,28.57,0,0,0,8,3.3c0-1.49,0-3.11,0-4.87v-.12A32.59,32.59,0,0,1,357.16,177Z" style="fill:#fafafa"></path><path d="M410.69,86l-.08,2A165.83,165.83,0,0,0,405,110c-1.24,6.78-1.71,14.69-2.25,21.74-1.32,17.11-1.56,58-1.6,72.09,9.85,1.93,23.59,0,29.76-4.6-1.17-18.8-2.33-28.53-1.29-42.7,1.08-14.91,7.25-42.66,1.47-64.78C425.87,90.27,417.48,87.75,410.69,86Z" style="fill:#BA68C8"></path><path d="M429.71,180.86c-5.2,4.22-17.07,7.6-28.46,7.26,0,1.86,0,3.63,0,5.31,0,0,18.73.78,28.83-7.37C429.92,184.26,429.81,182.53,429.71,180.86Z" style="fill:#fafafa"></path><path d="M401.42,172.39c0,1.8-.05,3.57-.07,5.32,13.73.67,23.35-3,28-5.25-.06-2-.09-3.89-.08-5.84A51.59,51.59,0,0,1,401.42,172.39Z" style="fill:#fafafa"></path><path d="M387.27,82.4c5.49,0,10.37-.71,13.61-2.07s6.11-5.75,7.05-10.1c0,3.5-1.54,9.71-6.45,12.28s-10.63,2.72-14.22,2.8Z" style="fill:#f28f8f"></path><path d="M394.9,50.29l4.57,2.13A2.65,2.65,0,0,0,398.2,49,2.45,2.45,0,0,0,394.9,50.29Z" style="fill:#37474f"></path><path d="M376.8,51.05l4.78-1.69a2.44,2.44,0,0,0-3.16-1.6A2.66,2.66,0,0,0,376.8,51.05Z" style="fill:#37474f"></path><path d="M397.4,55.72a2.05,2.05,0,1,1-1.9-2.2A2,2,0,0,1,397.4,55.72Z" style="fill:#263238"></path><path d="M381.88,55a2.05,2.05,0,1,1-1.9-2.2A2.05,2.05,0,0,1,381.88,55Z" style="fill:#263238"></path><path d="M389.13,52l-1.61,13-7.38-2.81A30.64,30.64,0,0,1,389.13,52Z" style="fill:#f28f8f"></path><path d="M392.92,68.57l-5.4,1.56a2.77,2.77,0,0,0,3.43,2A2.93,2.93,0,0,0,392.92,68.57Z" style="fill:#b16668"></path><path d="M392.32,69.51a3.14,3.14,0,0,1,.68,0A2.89,2.89,0,0,1,391,72.14a2.48,2.48,0,0,1-.89.09A2.57,2.57,0,0,1,392.32,69.51Z" style="fill:#f28f8f"></path></g><g id="freepik--Box--inject-3"><polygon points="281.89 143.33 323.7 155.66 343.77 137.07 301.96 124.74 281.89 143.33" style="fill:#BA68C8"></polygon><polygon points="281.89 143.33 323.7 155.66 343.77 137.07 301.96 124.74 281.89 143.33" style="fill:#fff;opacity:0.7000000000000001"></polygon><polygon points="281.89 143.33 328.6 200.44 370.4 212.77 323.7 155.66 281.89 143.33" style="fill:#BA68C8"></polygon><polygon points="281.89 143.33 328.6 200.44 370.4 212.77 323.7 155.66 281.89 143.33" style="fill:#fff;opacity:0.4"></polygon><polygon points="343.77 137.07 390.47 194.19 370.4 212.77 323.7 155.66 343.77 137.07" style="fill:#BA68C8"></polygon><polygon points="343.77 137.07 390.47 194.19 370.4 212.77 323.7 155.66 343.77 137.07" style="fill:#fff;opacity:0.6000000000000001"></polygon><path d="M305.79,150.38l-6-1.77,46.7,57.11,6,1.77Z" style="fill:#263238"></path><path d="M308.56,140.49l-8.76,8.12,6,1.77,8.76-8.11Z" style="fill:#455a64"></path></g><path id="freepik--shadow--inject-3" d="M381.25,182.9l-15.08-18.44c-1,.27-1.85,1-2.87,1.21a27.49,27.49,0,0,1-5,.4,45.31,45.31,0,0,1-10.07-1.62c-1.82-.47-3.63-1-5.45-1.49-1.05-.28-2.47-.4-2.92.59-.34.76.22,1.62.81,2.2,3.46,3.39,8.84,3.75,13,6.14.31.18.66.47.57.81s-.45.42-.76.48c-3.87.71-13.26,1.39-17,2.59-.69.22-1.5.65-1.47,1.38a1.58,1.58,0,0,0,.87,1.16,7.1,7.1,0,0,0,2.89,1.05,1.75,1.75,0,0,0,.47,2.21,4.76,4.76,0,0,0,2.27.89c1.33.25,2.66.45,4,.59,0,.57-.85.51-1.38.7a1.38,1.38,0,0,0-.63,1.78,3.58,3.58,0,0,0,1.42,1.52,9.08,9.08,0,0,0,5.54,2,10.62,10.62,0,0,0,2.5-.54c6.58-2,18.54-5,25.4-5.38C379.32,183.05,380.29,183,381.25,182.9Z" style="fill:#BA68C8;opacity:0.6000000000000001"></path><g id="freepik--arm--inject-3"><path d="M379.1,166.33c-2.73.39-5.26-1.54-7.4-4.34s-2.95-5.38-7-6.09-6.25-.92-6.25-.92l3.55,4.35s3.19,4.15-.62,5.11c-2.42.6-5,.58-9.39-.83-7.18-2.32-11.14-4-11.93-1.83s1.41,2.83,4.06,4,9.1,3.53,10.72,4.34,1.8,1.56-1.5,2.13-14,1.43-16.2,1.66-3.2,1.78-2.1,2.75,5,1.54,5,1.54-2.07,2.68,2,3.39,13.78-.22,14.37-.1-6.61,2.54-7.62,2.58-5-1.54-5.52-.65.07,1.88,1.69,2.54,3.85,2.45,5.57,2.09,10.62-3.56,13.2-4.1,15.91-3.51,15.91-3.51Z" style="fill:#ffa8a7"></path><path d="M430.69,92.27c-6.42,3.79-11.64,14.07-12.73,23.81s-3.38,34.6-3.38,34.6-21.94,9.59-27.68,11.46-12,3.2-15.2-.15L374,181.74s22.17-3.52,32.59-5.49c11-2.08,18-4.08,21.39-5.46,6-2.44,7.65-2.84,9.52-13.26,1.62-9,3.31-26.26,4.47-35.09S444.45,96.18,430.69,92.27Z" style="fill:#ffa8a7"></path><path d="M340,178.23c1.71,0,3.41-.13,5.12-.2l5.11-.3,2.56-.13a19.45,19.45,0,0,0,2.53-.19l5.09-.58c-1.66.38-3.34.71-5,.95a46.49,46.49,0,0,1-5.12.34c-1.71.08-3.41.16-5.12.18S341.74,178.36,340,178.23Z" style="fill:#f28f8f"></path><path d="M430.2,91.47c4.08,1,8.7,2.9,10.87,9.15s2.53,9.87,1.54,21.82-2.72,22.83-2.72,22.83-3.53,1.3-11.94.68-13.13-4.42-13.13-4.42,1.71-18.74,2.53-26.61S421.61,95.73,430.2,91.47Z" style="fill:#455a64"></path></g></g></g></g><g id="freepik--cargo-car--inject-3"><g id="freepik--cargo-car--inject-3"><g id="freepik--cargo-car--inject-3"><path d="M238.33,184.49,187.19,214c-5.6,3.24-10.19,11.18-10.19,17.65v112.9l-4.75,2.74V227.81c0-6.47,4.59-14.42,10.19-17.65l56.11-32.4c5.61-3.23,10.19-.59,10.19,5.89V303.14L244,305.91V187.74C244,184.17,241.43,182.71,238.33,184.49Z" style="fill:#e0e0e0"></path><path d="M283.32,436.09c0-5.82-4.08-12.9-9.12-15.81-2.65-1.53-5-1.59-6.69-.48h0l-6.16,3.52,13.1,22.25,6.1-3.51v0C282.25,441.11,283.32,439.06,283.32,436.09Z" style="fill:#455a64"></path><path d="M267.8,424c5.05,2.91,9.13,10,9.13,15.81S272.85,448,267.8,445s-9.13-10-9.13-15.81S262.76,421.05,267.8,424Z" style="fill:#37474f"></path><path d="M264.71,432.72c0-2.28,1.39-3.32,3.09-2.34a7.4,7.4,0,0,1,3.09,5.91c0,2.27-1.38,3.32-3.09,2.33A7.41,7.41,0,0,1,264.71,432.72Z" style="fill:#263238"></path><path d="M278.5,414.25s0,10.41-5,14.1c-.93.69-1.93,1.17-2.51,1.66-1.27,1.06-.43,3,1.11,3.82,2.24,1.2,14.43-2.05,19.59-11.95Z" style="fill:#f0f0f0"></path><path d="M273.77,417s0,10.42-5,14.11c-.93.69-1.93,1.17-2.51,1.66-1.27,1-.43,3,1.11,3.82,2.24,1.2,14.43-2.05,19.59-12Z" style="fill:#fafafa"></path><path d="M267.8,433.49a1.93,1.93,0,0,1,.88,1.52c0,.56-.39.78-.88.5a1.93,1.93,0,0,1-.87-1.51C266.93,433.44,267.32,433.21,267.8,433.49Z" style="fill:#263238"></path><path d="M184.21,378.87c0-5.83-4.09-12.91-9.13-15.82-2.65-1.52-5-1.58-6.69-.47h0l-6.15,3.52,13.09,22.24,6.1-3.51h0C183.14,383.89,184.21,381.84,184.21,378.87Z" style="fill:#455a64"></path><path d="M168.69,366.74c5,2.91,9.13,10,9.13,15.81s-4.09,8.18-9.13,5.27-9.13-10-9.13-15.81S163.65,363.83,168.69,366.74Z" style="fill:#37474f"></path><path d="M165.6,375.49c0-2.27,1.38-3.32,3.09-2.33a7.38,7.38,0,0,1,3.09,5.9c0,2.28-1.38,3.32-3.09,2.34A7.4,7.4,0,0,1,165.6,375.49Z" style="fill:#263238"></path><path d="M179.39,357s0,10.42-5,14.11c-.94.69-1.93,1.17-2.52,1.66-1.26,1-.42,3,1.12,3.82,2.23,1.2,14.42-2.05,19.59-12Z" style="fill:#f0f0f0"></path><path d="M174.66,359.74s0,10.42-5,14.1c-.94.7-1.93,1.18-2.52,1.67-1.26,1.05-.43,3,1.11,3.81,2.24,1.2,14.43-2,19.59-11.95Z" style="fill:#fafafa"></path><path d="M168.69,376.27a1.94,1.94,0,0,1,.87,1.51c0,.56-.39.79-.87.51a2,2,0,0,1-.88-1.52C167.81,376.21,168.21,376,168.69,376.27Z" style="fill:#263238"></path><polygon points="167.47 350.07 253.52 300.38 387.39 377.67 301.33 427.36 167.47 350.07" style="fill:#455a64"></polygon><polygon points="167.47 350.07 167.47 355.59 301.33 432.88 301.33 427.36 167.47 350.07" style="fill:#37474f"></polygon><polygon points="387.39 377.67 387.39 383.19 301.33 432.88 301.33 427.36 387.39 377.67" style="fill:#263238"></polygon></g><g id="freepik--Items--inject-3"><polygon id="freepik--shadow--inject-3" points="175 349.83 250.38 393.37 330.02 347.45 254.43 304.02 175 349.83" style="fill:#37474f"></polygon><g id="freepik--box--inject-3"><polygon points="322.73 299.77 253.68 259.85 180.97 301.92 250.02 341.84 322.73 299.77" style="fill:#BA68C8"></polygon><polygon points="322.73 299.77 253.68 259.85 180.97 301.92 250.02 341.84 322.73 299.77" style="fill:#fff;opacity:0.30000000000000004"></polygon><polygon points="250.02 390.1 322.73 348.03 322.73 299.77 250.02 341.84 250.02 390.1" style="fill:#BA68C8"></polygon><path d="M258.48,372.64a1.62,1.62,0,0,1-.8-.21,2.44,2.44,0,0,1-1-2.22v-6.55h0v-.49l.33.06,5.14-3v7.32a6,6,0,0,1-2.53,4.78A2.34,2.34,0,0,1,258.48,372.64Zm-1-8.49v6.06a1.7,1.7,0,0,0,.59,1.51,1.17,1.17,0,0,0,1.12-.12,5.22,5.22,0,0,0,2.11-4.07V367h-1.9l-.37-2.57Zm2.63,2h1.19v-4.52l-3.06,1.79,1.52.27Z" style="fill:#455a64"></path><path d="M259.41,377.87a.41.41,0,0,1-.41-.42V372a.41.41,0,0,1,.82,0v5.5A.41.41,0,0,1,259.41,377.87Z" style="fill:#455a64"></path><path d="M257,379.25a.43.43,0,0,1-.36-.21.42.42,0,0,1,.15-.56l4.79-2.76a.4.4,0,0,1,.56.15.41.41,0,0,1-.15.56l-4.78,2.76A.42.42,0,0,1,257,379.25Z" style="fill:#455a64"></path><path d="M274.06,369.77a.89.89,0,0,1-.45-.12,1.09,1.09,0,0,1-.49-1v-1.12a.41.41,0,1,1,.82,0v1.12a.37.37,0,0,0,.08.28s.13,0,.27-.07a2.42,2.42,0,0,0,.76-1.86v-7.32a.42.42,0,0,1,.83,0V367a3.15,3.15,0,0,1-1.17,2.57A1.27,1.27,0,0,1,274.06,369.77Z" style="fill:#455a64"></path><path d="M269.72,363.37v-.71a11.65,11.65,0,0,1,5.27-9.13,3.49,3.49,0,0,1,5.68,3.28v.24Zm7.74-9.76a4.22,4.22,0,0,0-2.06.64,10.88,10.88,0,0,0-4.82,7.67l9.26-5.34a3.05,3.05,0,0,0-1.27-2.69A2.18,2.18,0,0,0,277.46,353.61Z" style="fill:#455a64"></path><path d="M288.85,361.34a.41.41,0,0,1-.41-.41v-14a.41.41,0,1,1,.82,0v14A.41.41,0,0,1,288.85,361.34Z" style="fill:#455a64"></path><path d="M287.64,350.11a.34.34,0,0,1-.16,0,.41.41,0,0,1-.21-.54l1.46-3.38,1.64,1.89a.41.41,0,0,1,0,.58.42.42,0,0,1-.59-.05l-.77-.89-1,2.18A.4.4,0,0,1,287.64,350.11Z" style="fill:#455a64"></path><path d="M292.66,359.17a.41.41,0,0,1-.41-.41v-14a.41.41,0,1,1,.82,0v14A.41.41,0,0,1,292.66,359.17Z" style="fill:#455a64"></path><path d="M291.45,347.94a.32.32,0,0,1-.16,0,.41.41,0,0,1-.22-.54l1.47-3.38,1.63,1.88a.4.4,0,0,1,0,.58.41.41,0,0,1-.58,0l-.77-.89-.95,2.18A.43.43,0,0,1,291.45,347.94Z" style="fill:#455a64"></path><polygon points="250.02 390.1 180.97 350.19 180.97 301.92 250.02 341.84 250.02 390.1" style="fill:#BA68C8"></polygon><polygon points="250.02 390.1 180.97 350.19 180.97 301.92 250.02 341.84 250.02 390.1" style="opacity:0.1"></polygon><path d="M189.7,331.11,210,342.81a2.05,2.05,0,0,1,.92,1.59v14.08c0,1.16-.82,1.64-1.83,1.06l-20.26-11.71a2,2,0,0,1-.92-1.58V332.16C187.88,331,188.7,330.53,189.7,331.11Z" style="fill:#fafafa"></path><polygon points="189.2 333.3 189.89 333.7 189.89 346.13 189.2 345.73 189.2 333.3" style="fill:#455a64"></polygon><polygon points="192 334.92 193.19 335.62 193.19 348.05 192 347.35 192 334.92" style="fill:#455a64"></polygon><polygon points="194.81 336.54 195.5 336.94 195.5 349.37 194.81 348.97 194.81 336.54" style="fill:#455a64"></polygon><polygon points="196.93 337.74 198.31 338.56 198.31 350.99 196.93 350.17 196.93 337.74" style="fill:#455a64"></polygon><polygon points="200.42 339.78 201.11 340.18 201.11 352.61 200.42 352.21 200.42 339.78" style="fill:#455a64"></polygon><polygon points="202.44 340.92 203.92 341.8 203.92 354.23 202.44 353.35 202.44 340.92" style="fill:#455a64"></polygon><polygon points="206.03 343.02 206.72 343.42 206.72 355.85 206.03 355.45 206.03 343.02" style="fill:#455a64"></polygon><polygon points="207.63 343.93 207.98 344.13 207.98 356.56 207.63 356.36 207.63 343.93" style="fill:#455a64"></polygon><polygon points="204.75 342.34 205.1 342.54 205.1 354.97 204.75 354.77 204.75 342.34" style="fill:#455a64"></polygon><polygon points="199.1 339.03 199.45 339.23 199.45 351.66 199.1 351.46 199.1 339.03" style="fill:#455a64"></polygon><polygon points="196.01 337.25 196.35 337.45 196.35 349.88 196.01 349.69 196.01 337.25" style="fill:#455a64"></polygon><polygon points="193.78 336.03 194.13 336.23 194.13 348.66 193.78 348.46 193.78 336.03" style="fill:#455a64"></polygon><polygon points="190.77 334.2 191.11 334.39 191.11 346.83 190.77 346.63 190.77 334.2" style="fill:#455a64"></polygon><polygon points="208.84 344.64 209.53 345.04 209.53 357.47 208.84 357.07 208.84 344.64" style="fill:#455a64"></polygon><polygon points="209.96 325.99 214.68 328.72 214.68 321.39 209.96 318.66 209.96 325.99" style="fill:#37474f"></polygon><polygon points="214.68 321.39 287.39 279.32 282.67 276.59 209.96 318.66 214.68 321.39" style="fill:#455a64"></polygon></g><polygon id="freepik--shadow--inject-3" points="181.97 301.35 238.12 333.67 309.76 292.25 253.68 259.85 181.97 301.35" style="opacity:0.1"></polygon><g id="freepik--box--inject-3"><polygon points="304.07 245.8 248.17 213.59 182.09 251.8 237.99 284.01 304.07 245.8" style="fill:#BA68C8"></polygon><polygon points="304.07 245.8 248.17 213.59 182.09 251.8 237.99 284.01 304.07 245.8" style="fill:#fff;opacity:0.7000000000000001"></polygon><polygon points="237.99 330.37 304.07 292.15 304.07 245.8 237.99 284.01 237.99 330.37" style="fill:#BA68C8"></polygon><polygon points="237.99 330.37 304.07 292.15 304.07 245.8 237.99 284.01 237.99 330.37" style="fill:#fff;opacity:0.6000000000000001"></polygon><path d="M247,312.54a1.43,1.43,0,0,1-.7-.18,2.16,2.16,0,0,1-.87-1.94v-5.69h0v-.42l.29.05,4.46-2.62v6.36a5.16,5.16,0,0,1-2.19,4.16A2.07,2.07,0,0,1,247,312.54Zm-.86-7.39v5.27a1.44,1.44,0,0,0,.52,1.31,1,1,0,0,0,1-.1,4.51,4.51,0,0,0,1.84-3.54v-.47h-1.65l-.33-2.23Zm2.29,1.76h1V303l-2.67,1.56,1.32.24Z" style="fill:#455a64"></path><path d="M247.77,317.08a.36.36,0,0,1-.36-.36v-4.78a.36.36,0,1,1,.71,0v4.78A.36.36,0,0,1,247.77,317.08Z" style="fill:#455a64"></path><path d="M245.69,318.28a.33.33,0,0,1-.31-.18.36.36,0,0,1,.13-.49l4.16-2.4a.36.36,0,1,1,.35.62l-4.15,2.4A.41.41,0,0,1,245.69,318.28Z" style="fill:#455a64"></path><path d="M260.5,310a.76.76,0,0,1-.39-.1,1,1,0,0,1-.43-.86v-1a.36.36,0,1,1,.72,0v1c0,.15,0,.22.07.24a.32.32,0,0,0,.23-.06,2.1,2.1,0,0,0,.67-1.62v-6.36a.36.36,0,1,1,.71,0v6.36a2.71,2.71,0,0,1-1,2.23A1.17,1.17,0,0,1,260.5,310Z" style="fill:#455a64"></path><path d="M256.73,304.48v-.62a10.14,10.14,0,0,1,4.58-7.94,3,3,0,0,1,4.94,2.86v.2Zm6.72-8.49a3.63,3.63,0,0,0-1.78.56,9.44,9.44,0,0,0-4.19,6.67l8-4.65a2.63,2.63,0,0,0-1.11-2.33A1.85,1.85,0,0,0,263.45,296Z" style="fill:#455a64"></path><path d="M273.36,302.71a.36.36,0,0,1-.36-.36V290.17a.36.36,0,1,1,.72,0v12.18A.36.36,0,0,1,273.36,302.71Z" style="fill:#455a64"></path><path d="M272.31,293a.35.35,0,0,1-.32-.5l1.27-2.95,1.42,1.64a.36.36,0,0,1,0,.51.35.35,0,0,1-.5,0l-.68-.78-.82,1.9A.36.36,0,0,1,272.31,293Z" style="fill:#455a64"></path><path d="M276.67,300.82a.36.36,0,0,1-.36-.36V288.28a.36.36,0,0,1,.72,0v12.18A.36.36,0,0,1,276.67,300.82Z" style="fill:#455a64"></path><path d="M275.62,291.06l-.14,0a.36.36,0,0,1-.18-.47l1.27-2.95,1.42,1.65a.35.35,0,1,1-.54.46l-.68-.78-.82,1.9A.36.36,0,0,1,275.62,291.06Z" style="fill:#455a64"></path><polygon points="237.99 330.37 182.09 298.15 182.09 251.8 237.99 284.01 237.99 330.37" style="fill:#BA68C8"></polygon><polygon points="237.99 330.37 182.09 298.15 182.09 251.8 237.99 284.01 237.99 330.37" style="fill:#fff;opacity:0.4"></polygon><path d="M189.7,278.21,210,289.91a2.05,2.05,0,0,1,.92,1.59v14.08c0,1.16-.82,1.64-1.83,1.06l-20.26-11.71a2,2,0,0,1-.92-1.58V279.26C187.88,278.1,188.7,277.63,189.7,278.21Z" style="fill:#fafafa"></path><polygon points="189.2 280.4 189.89 280.8 189.89 293.23 189.2 292.83 189.2 280.4" style="fill:#455a64"></polygon><polygon points="192 282.02 193.19 282.72 193.19 295.15 192 294.45 192 282.02" style="fill:#455a64"></polygon><polygon points="194.81 283.64 195.5 284.04 195.5 296.47 194.81 296.07 194.81 283.64" style="fill:#455a64"></polygon><polygon points="196.93 284.84 198.31 285.66 198.31 298.09 196.93 297.27 196.93 284.84" style="fill:#455a64"></polygon><polygon points="200.42 286.88 201.11 287.28 201.11 299.71 200.42 299.31 200.42 286.88" style="fill:#455a64"></polygon><polygon points="202.44 288.02 203.92 288.9 203.92 301.33 202.44 300.45 202.44 288.02" style="fill:#455a64"></polygon><polygon points="206.03 290.12 206.72 290.52 206.72 302.95 206.03 302.55 206.03 290.12" style="fill:#455a64"></polygon><polygon points="207.63 291.03 207.98 291.23 207.98 303.66 207.63 303.46 207.63 291.03" style="fill:#455a64"></polygon><polygon points="204.75 289.44 205.1 289.64 205.1 302.07 204.75 301.87 204.75 289.44" style="fill:#455a64"></polygon><polygon points="199.1 286.13 199.45 286.33 199.45 298.76 199.1 298.56 199.1 286.13" style="fill:#455a64"></polygon><polygon points="196.01 284.35 196.35 284.55 196.35 296.98 196.01 296.79 196.01 284.35" style="fill:#455a64"></polygon><polygon points="193.78 283.13 194.13 283.32 194.13 295.76 193.78 295.56 193.78 283.13" style="fill:#455a64"></polygon><polygon points="190.77 281.3 191.11 281.49 191.11 293.93 190.77 293.73 190.77 281.3" style="fill:#455a64"></polygon><polygon points="208.84 291.74 209.53 292.13 209.53 304.57 208.84 304.17 208.84 291.74" style="fill:#455a64"></polygon><polygon points="205.18 273.18 210.44 276.22 210.44 268.06 205.18 265.02 205.18 273.18" style="fill:#37474f"></polygon><polygon points="210.44 268.06 276.53 229.84 271.26 226.81 205.18 265.02 210.44 268.06" style="fill:#455a64"></polygon></g><g id="freepik--Cans--inject-3"><path d="M324.16,368.25c6.29,3.64,16.49,3.64,22.79,0s6.29-9.52,0-13.16-16.5-3.63-22.8,0S317.86,364.62,324.16,368.25Z" style="fill:#37474f"></path><path d="M349.14,361.11h0V333.94H321.94v27.17h0c-.11,2.09,1.2,4.21,4,5.8,5.31,3.07,13.93,3.07,19.25,0C347.94,365.32,349.26,363.2,349.14,361.11Z" style="fill:#ebebeb"></path><path d="M325.93,339.49c5.31,3.07,13.93,3.07,19.25,0s5.31-8,0-11.11-13.94-3.07-19.25,0S320.61,336.42,325.93,339.49Z" style="fill:#fafafa"></path><path d="M326.52,339c5,2.81,13.08,2.81,18.07,0s5-7.39,0-10.21-13.08-2.81-18.07,0S321.53,336.22,326.52,339Z" style="fill:#ebebeb"></path><path d="M344.59,330.15c-5-2.81-13.08-2.81-18.07,0-2.2,1.24-3.43,2.82-3.69,4.45.26,1.62,1.49,3.2,3.69,4.44,5,2.81,13.08,2.81,18.07,0,2.19-1.24,3.42-2.82,3.68-4.44C348,333,346.78,331.39,344.59,330.15Z" style="fill:#f5f5f5"></path><path d="M321.94,356.52c0,2,1.31,4.05,4,5.59,5.31,3.07,13.93,3.07,19.25,0,2.65-1.53,4-3.54,4-5.55v-18.2c0,2-1.33,4-4,5.56-5.32,3.07-13.94,3.07-19.25,0-2.68-1.54-4-3.57-4-5.6Z" style="fill:#BA68C8"></path><path d="M321.94,356.52c0,2,1.31,4.05,4,5.59,5.31,3.07,13.93,3.07,19.25,0,2.65-1.53,4-3.54,4-5.55v-18.2c0,2-1.33,4-4,5.56-5.32,3.07-13.94,3.07-19.25,0-2.68-1.54-4-3.57-4-5.6Z" style="opacity:0.30000000000000004"></path><path d="M341.13,368.52c-5,1.29-11.09.77-15.2-1.61-2.77-1.59-4.08-3.7-4-5.81h0V333.93c0,2,1.33,4,4,5.56a16.11,16.11,0,0,0,5.57,1.95v23C331.5,366.68,334.83,369.39,341.13,368.52Z" style="opacity:0.1"></path><path d="M338.66,338.78l-1.45-.83c-1.17-.68-1.48-1.59-.7-2.05a4.11,4.11,0,0,1,3.55.41l1.44.83c1.17.68,1.49,1.59.7,2.05A4.09,4.09,0,0,1,338.66,338.78Z" style="fill:#e0e0e0"></path><path d="M337.15,337.16a1.7,1.7,0,0,0,1.55,0c.43-.24.43-.64,0-.89a1.7,1.7,0,0,0-1.55,0C336.72,336.52,336.72,336.92,337.15,337.16Z" style="fill:#f5f5f5"></path><path d="M340,338.71a1.7,1.7,0,0,0,1.55,0,.48.48,0,0,0,0-.9,1.76,1.76,0,0,0-1.55,0A.48.48,0,0,0,340,338.71Z" style="fill:#f5f5f5"></path><path d="M304,379.9c6.3,3.63,16.5,3.63,22.8,0s6.29-9.53,0-13.16-16.5-3.63-22.8,0S297.69,376.27,304,379.9Z" style="fill:#37474f"></path><path d="M329,372.75h0V345.58H301.77v27.17h0c-.11,2.1,1.2,4.21,4,5.81,5.31,3.07,13.93,3.07,19.24,0C327.77,377,329.08,374.85,329,372.75Z" style="fill:#ebebeb"></path><path d="M305.76,351.14c5.31,3.06,13.93,3.06,19.24,0s5.32-8.05,0-11.12-13.93-3.06-19.24,0S300.44,348.07,305.76,351.14Z" style="fill:#fafafa"></path><path d="M306.35,350.68c5,2.82,13.08,2.82,18.07,0s5-7.38,0-10.2-13.08-2.82-18.07,0S301.36,347.86,306.35,350.68Z" style="fill:#ebebeb"></path><path d="M324.42,341.8c-5-2.82-13.08-2.82-18.07,0-2.2,1.24-3.43,2.82-3.69,4.44.26,1.62,1.49,3.2,3.69,4.44,5,2.82,13.08,2.82,18.07,0,2.19-1.24,3.42-2.82,3.68-4.44C327.84,344.62,326.61,343,324.42,341.8Z" style="fill:#f5f5f5"></path><path d="M301.77,368.16c0,2,1.31,4,4,5.6,5.31,3.07,13.93,3.07,19.24,0,2.66-1.54,4-3.55,4-5.56V350c0,2-1.33,4-4,5.56-5.31,3.06-13.93,3.06-19.24,0-2.68-1.55-4-3.58-4-5.6Z" style="fill:#BA68C8"></path><path d="M301.77,368.16c0,2,1.31,4,4,5.6,5.31,3.07,13.93,3.07,19.24,0,2.66-1.54,4-3.55,4-5.56V350c0,2-1.33,4-4,5.56-5.31,3.06-13.93,3.06-19.24,0-2.68-1.55-4-3.58-4-5.6Z" style="opacity:0.30000000000000004"></path><path d="M321,380.17c-5,1.29-11.09.77-15.2-1.61-2.77-1.59-4.08-3.71-4-5.81h0V345.58c0,2,1.33,4,4,5.56a16,16,0,0,0,5.57,1.94v23C311.33,378.33,314.66,381,321,380.17Z" style="opacity:0.1"></path><path d="M318.49,350.43l-1.45-.84c-1.17-.67-1.48-1.59-.7-2a4.07,4.07,0,0,1,3.55.4l1.44.84c1.17.67,1.49,1.59.7,2A4.12,4.12,0,0,1,318.49,350.43Z" style="fill:#e0e0e0"></path><path d="M317,348.81a1.7,1.7,0,0,0,1.55,0,.48.48,0,0,0,0-.9,1.76,1.76,0,0,0-1.55,0A.48.48,0,0,0,317,348.81Z" style="fill:#f5f5f5"></path><path d="M319.84,350.36a1.76,1.76,0,0,0,1.55,0,.48.48,0,0,0,0-.9,1.7,1.7,0,0,0-1.55,0A.48.48,0,0,0,319.84,350.36Z" style="fill:#f5f5f5"></path><ellipse cx="295.21" cy="384.96" rx="16.12" ry="9.31" style="fill:#37474f"></ellipse><path d="M308.8,384.4h0V357.23H281.6V384.4h0c-.11,2.09,1.2,4.21,4,5.81,5.31,3.06,13.93,3.06,19.24,0C307.6,388.61,308.91,386.49,308.8,384.4Z" style="fill:#ebebeb"></path><path d="M285.59,362.78c5.31,3.07,13.93,3.07,19.24,0s5.32-8,0-11.11-13.93-3.07-19.24,0S280.27,359.71,285.59,362.78Z" style="fill:#fafafa"></path><path d="M286.18,362.33c5,2.82,13.08,2.82,18.07,0s5-7.39,0-10.21-13.08-2.81-18.07,0S281.19,359.51,286.18,362.33Z" style="fill:#ebebeb"></path><path d="M304.25,353.44c-5-2.81-13.08-2.81-18.07,0-2.2,1.24-3.43,2.83-3.69,4.45.26,1.62,1.49,3.2,3.69,4.44,5,2.82,13.08,2.82,18.07,0,2.19-1.24,3.42-2.82,3.68-4.44C307.67,356.27,306.44,354.68,304.25,353.44Z" style="fill:#f5f5f5"></path><path d="M281.6,379.81c0,2,1.31,4.05,4,5.59,5.31,3.07,13.93,3.07,19.24,0,2.66-1.53,4-3.54,4-5.55v-18.2c0,2-1.33,4-4,5.56-5.31,3.07-13.93,3.07-19.24,0-2.68-1.54-4-3.57-4-5.6Z" style="fill:#BA68C8"></path><path d="M281.6,379.81c0,2,1.31,4.05,4,5.59,5.31,3.07,13.93,3.07,19.24,0,2.66-1.53,4-3.54,4-5.55v-18.2c0,2-1.33,4-4,5.56-5.31,3.07-13.93,3.07-19.24,0-2.68-1.54-4-3.57-4-5.6Z" style="opacity:0.30000000000000004"></path><path d="M298.32,362.07l-1.45-.83c-1.17-.68-1.48-1.59-.7-2.05a4.11,4.11,0,0,1,3.55.41l1.44.83c1.17.68,1.49,1.59.7,2.05A4.09,4.09,0,0,1,298.32,362.07Z" style="fill:#e0e0e0"></path><path d="M296.81,360.45a1.7,1.7,0,0,0,1.55,0c.43-.24.43-.64,0-.89a1.7,1.7,0,0,0-1.55,0C296.38,359.81,296.38,360.21,296.81,360.45Z" style="fill:#f5f5f5"></path><path d="M299.67,362a1.7,1.7,0,0,0,1.55,0c.43-.25.43-.65,0-.89a1.7,1.7,0,0,0-1.55,0C299.24,361.35,299.24,361.75,299.67,362Z" style="fill:#f5f5f5"></path><path d="M300.79,391.82c-5,1.29-11.09.76-15.19-1.62-2.77-1.59-4.09-3.7-4-5.8h0V357.23c0,2,1.34,4,4,5.56a16,16,0,0,0,5.56,1.94v23C291.16,390,294.49,392.68,300.79,391.82Z" style="opacity:0.1"></path><path d="M263.64,403.19c6.3,3.63,16.5,3.63,22.8,0s6.29-9.53,0-13.16-16.5-3.63-22.8,0S257.35,399.56,263.64,403.19Z" style="fill:#37474f"></path><path d="M288.63,396.05h0V368.87H261.43v27.18h0c-.11,2.09,1.2,4.2,4,5.8,5.31,3.07,13.93,3.07,19.24,0C287.43,400.25,288.74,398.14,288.63,396.05Z" style="fill:#ebebeb"></path><ellipse cx="275.04" cy="368.87" rx="13.61" ry="7.86" style="fill:#fafafa"></ellipse><path d="M266,374c5,2.82,13.08,2.82,18.07,0s5-7.38,0-10.2S271,361,266,363.77,261,371.16,266,374Z" style="fill:#ebebeb"></path><path d="M284.08,365.09c-5-2.82-13.08-2.82-18.07,0-2.2,1.24-3.43,2.82-3.69,4.44.26,1.62,1.49,3.2,3.69,4.44,5,2.82,13.08,2.82,18.07,0,2.19-1.24,3.42-2.82,3.68-4.44C287.5,367.91,286.27,366.33,284.08,365.09Z" style="fill:#f5f5f5"></path><path d="M261.43,391.45c0,2,1.31,4.05,4,5.6,5.31,3.07,13.93,3.07,19.24,0,2.66-1.54,4-3.55,4-5.56V373.3c0,2-1.33,4-4,5.56-5.31,3.06-13.93,3.06-19.24,0-2.68-1.55-4-3.58-4-5.6Z" style="fill:#BA68C8"></path><path d="M261.43,391.45c0,2,1.31,4.05,4,5.6,5.31,3.07,13.93,3.07,19.24,0,2.66-1.54,4-3.55,4-5.56V373.3c0,2-1.33,4-4,5.56-5.31,3.06-13.93,3.06-19.24,0-2.68-1.55-4-3.58-4-5.6Z" style="opacity:0.30000000000000004"></path><path d="M280.61,403.46c-5,1.29-11.08.77-15.19-1.61-2.77-1.59-4.08-3.71-4-5.81h0V368.87c0,2,1.33,4,4,5.56a15.88,15.88,0,0,0,5.57,1.94v23C271,401.62,274.32,404.33,280.61,403.46Z" style="opacity:0.1"></path><path d="M278.15,373.72l-1.45-.84c-1.17-.67-1.48-1.59-.7-2a4.1,4.1,0,0,1,3.55.4l1.44.84c1.17.67,1.49,1.59.7,2A4.12,4.12,0,0,1,278.15,373.72Z" style="fill:#e0e0e0"></path><ellipse cx="277.41" cy="371.65" rx="1.1" ry="0.63" style="fill:#f5f5f5"></ellipse><path d="M279.5,373.65a1.76,1.76,0,0,0,1.55,0,.48.48,0,0,0,0-.9,1.7,1.7,0,0,0-1.55,0A.48.48,0,0,0,279.5,373.65Z" style="fill:#f5f5f5"></path></g><g id="freepik--cans--inject-3"><path d="M344.15,379.81c6.3,3.64,16.5,3.64,22.8,0s6.29-9.52,0-13.16-16.5-3.63-22.8,0S337.86,376.18,344.15,379.81Z" style="fill:#37474f"></path><path d="M369.14,372.67h0V345.49H341.94v27.18h0c-.11,2.09,1.2,4.2,4,5.8,5.31,3.07,13.93,3.07,19.24,0C367.94,376.87,369.25,374.76,369.14,372.67Z" style="fill:#ebebeb"></path><path d="M345.93,351.05c5.31,3.07,13.93,3.07,19.24,0s5.32-8.05,0-11.11-13.93-3.07-19.24,0S340.61,348,345.93,351.05Z" style="fill:#fafafa"></path><path d="M346.51,350.59c5,2.82,13.08,2.82,18.07,0s5-7.38,0-10.2-13.08-2.82-18.07,0S341.52,347.78,346.51,350.59Z" style="fill:#ebebeb"></path><path d="M364.58,341.71c-5-2.82-13.08-2.82-18.07,0-2.19,1.24-3.42,2.82-3.68,4.44.26,1.62,1.49,3.2,3.68,4.44,5,2.82,13.08,2.82,18.07,0,2.2-1.24,3.43-2.82,3.69-4.44C368,344.53,366.78,343,364.58,341.71Z" style="fill:#f5f5f5"></path><path d="M341.94,368.07c0,2,1.31,4.06,4,5.6,5.31,3.07,13.93,3.07,19.24,0,2.66-1.53,4-3.54,4-5.56V349.92c0,2-1.33,4-4,5.56-5.31,3.07-13.93,3.07-19.24,0-2.68-1.55-4-3.58-4-5.6Z" style="fill:#BA68C8"></path><path d="M341.94,368.07c0,2,1.31,4.06,4,5.6,5.31,3.07,13.93,3.07,19.24,0,2.66-1.53,4-3.54,4-5.56V349.92c0,2-1.33,4-4,5.56-5.31,3.07-13.93,3.07-19.24,0-2.68-1.55-4-3.58-4-5.6Z" style="opacity:0.30000000000000004"></path><path d="M361.12,380.08c-5,1.29-11.09.77-15.19-1.61-2.77-1.59-4.08-3.71-4-5.81h0V345.49c0,2,1.33,4,4,5.56A15.88,15.88,0,0,0,351.5,353v23C351.5,378.24,354.83,381,361.12,380.08Z" style="opacity:0.1"></path><path d="M358.66,350.34l-1.45-.83c-1.17-.68-1.48-1.6-.7-2.05a4.14,4.14,0,0,1,3.55.4l1.44.84c1.17.67,1.48,1.59.7,2A4,4,0,0,1,358.66,350.34Z" style="fill:#e0e0e0"></path><path d="M357.14,348.72a1.72,1.72,0,0,0,1.56,0,.47.47,0,0,0,0-.89,1.72,1.72,0,0,0-1.56,0A.47.47,0,0,0,357.14,348.72Z" style="fill:#f5f5f5"></path><path d="M360,350.27a1.76,1.76,0,0,0,1.55,0,.48.48,0,0,0,0-.9,1.7,1.7,0,0,0-1.55,0A.48.48,0,0,0,360,350.27Z" style="fill:#f5f5f5"></path><ellipse cx="335.38" cy="384.88" rx="16.12" ry="9.31" style="fill:#37474f"></ellipse><path d="M349,384.31h0V357.14H321.77v27.17h0c-.11,2.1,1.2,4.21,4,5.81,5.31,3.07,13.93,3.07,19.24,0C347.77,388.52,349.08,386.41,349,384.31Z" style="fill:#ebebeb"></path><path d="M325.76,362.69c5.31,3.07,13.93,3.07,19.24,0s5.32-8,0-11.11-13.93-3.07-19.24,0S320.44,359.62,325.76,362.69Z" style="fill:#fafafa"></path><path d="M326.34,362.24c5,2.82,13.08,2.82,18.07,0s5-7.39,0-10.2-13.08-2.82-18.07,0S321.35,359.42,326.34,362.24Z" style="fill:#ebebeb"></path><path d="M344.41,353.36c-5-2.82-13.08-2.82-18.07,0-2.19,1.24-3.42,2.82-3.68,4.44.26,1.62,1.49,3.2,3.68,4.44,5,2.82,13.08,2.82,18.07,0,2.2-1.24,3.43-2.82,3.69-4.44C347.84,356.18,346.61,354.6,344.41,353.36Z" style="fill:#f5f5f5"></path><path d="M321.77,379.72c0,2,1.31,4,4,5.6,5.31,3.06,13.93,3.06,19.24,0,2.66-1.54,4-3.55,4-5.56V361.57c0,2-1.33,4-4,5.55-5.31,3.07-13.93,3.07-19.24,0-2.68-1.54-4-3.57-4-5.59Z" style="fill:#BA68C8"></path><path d="M321.77,379.72c0,2,1.31,4,4,5.6,5.31,3.06,13.93,3.06,19.24,0,2.66-1.54,4-3.55,4-5.56V361.57c0,2-1.33,4-4,5.55-5.31,3.07-13.93,3.07-19.24,0-2.68-1.54-4-3.57-4-5.59Z" style="opacity:0.30000000000000004"></path><path d="M341,391.73c-5,1.29-11.09.76-15.19-1.62-2.77-1.59-4.08-3.7-4-5.8h0V357.14c0,2,1.33,4,4,5.56a16.11,16.11,0,0,0,5.57,1.94v23C331.33,389.89,334.66,392.59,341,391.73Z" style="opacity:0.1"></path><path d="M338.48,362l-1.44-.83c-1.17-.68-1.48-1.59-.7-2a4.11,4.11,0,0,1,3.55.41l1.44.83c1.17.68,1.48,1.59.7,2.05A4.11,4.11,0,0,1,338.48,362Z" style="fill:#e0e0e0"></path><path d="M337,360.37a1.76,1.76,0,0,0,1.55,0,.48.48,0,0,0,0-.9,1.7,1.7,0,0,0-1.55,0A.48.48,0,0,0,337,360.37Z" style="fill:#f5f5f5"></path><path d="M339.84,361.91a1.7,1.7,0,0,0,1.55,0,.47.47,0,0,0,0-.89,1.7,1.7,0,0,0-1.55,0A.47.47,0,0,0,339.84,361.91Z" style="fill:#f5f5f5"></path><path d="M303.81,403.1c6.3,3.64,16.5,3.64,22.8,0s6.29-9.52,0-13.16-16.5-3.63-22.8,0S297.52,399.47,303.81,403.1Z" style="fill:#37474f"></path><path d="M328.8,396h0V368.78H301.6V396h0c-.11,2.09,1.2,4.2,4,5.8,5.31,3.07,13.93,3.07,19.24,0C327.6,400.16,328.91,398.05,328.8,396Z" style="fill:#ebebeb"></path><path d="M305.59,374.34c5.31,3.07,13.93,3.07,19.24,0s5.32-8,0-11.11-13.93-3.07-19.24,0S300.27,371.27,305.59,374.34Z" style="fill:#fafafa"></path><path d="M306.17,373.89c5,2.81,13.08,2.81,18.07,0s5-7.39,0-10.21-13.08-2.82-18.07,0S301.18,371.07,306.17,373.89Z" style="fill:#ebebeb"></path><path d="M324.24,365c-5-2.82-13.08-2.82-18.07,0-2.19,1.24-3.42,2.82-3.68,4.44.26,1.62,1.49,3.2,3.68,4.44,5,2.82,13.08,2.82,18.07,0,2.2-1.24,3.43-2.82,3.69-4.44C327.67,367.82,326.44,366.24,324.24,365Z" style="fill:#f5f5f5"></path><path d="M301.6,391.36c0,2,1.31,4.06,4,5.6,5.31,3.07,13.93,3.07,19.24,0,2.66-1.53,4-3.54,4-5.55v-18.2c0,2-1.33,4-4,5.56-5.31,3.07-13.93,3.07-19.24,0-2.68-1.55-4-3.57-4-5.6Z" style="fill:#BA68C8"></path><path d="M301.6,391.36c0,2,1.31,4.06,4,5.6,5.31,3.07,13.93,3.07,19.24,0,2.66-1.53,4-3.54,4-5.55v-18.2c0,2-1.33,4-4,5.56-5.31,3.07-13.93,3.07-19.24,0-2.68-1.55-4-3.57-4-5.6Z" style="opacity:0.30000000000000004"></path><path d="M318.31,373.63l-1.44-.83c-1.17-.68-1.48-1.6-.7-2.05a4.14,4.14,0,0,1,3.55.4l1.44.84c1.17.67,1.48,1.59.7,2A4.07,4.07,0,0,1,318.31,373.63Z" style="fill:#e0e0e0"></path><path d="M316.8,372a1.7,1.7,0,0,0,1.55,0c.43-.25.43-.65,0-.89a1.7,1.7,0,0,0-1.55,0A.47.47,0,0,0,316.8,372Z" style="fill:#f5f5f5"></path><path d="M319.67,373.56a1.7,1.7,0,0,0,1.55,0,.48.48,0,0,0,0-.9,1.76,1.76,0,0,0-1.55,0A.48.48,0,0,0,319.67,373.56Z" style="fill:#f5f5f5"></path><path d="M320.78,403.37c-5,1.29-11.08.77-15.19-1.61-2.77-1.59-4.08-3.7-4-5.8h0V368.79c0,2,1.33,4,4,5.56a16.34,16.34,0,0,0,5.57,1.94v23C311.16,401.54,314.49,404.24,320.78,403.37Z" style="opacity:0.1"></path><path d="M283.64,414.75c6.3,3.63,16.5,3.63,22.8,0s6.29-9.53,0-13.16-16.5-3.64-22.8,0S277.35,411.11,283.64,414.75Z" style="fill:#37474f"></path><path d="M308.63,407.6h0V380.43H281.43V407.6h0c-.11,2.1,1.2,4.21,4,5.81,5.31,3.07,13.93,3.07,19.24,0C307.43,411.81,308.74,409.7,308.63,407.6Z" style="fill:#ebebeb"></path><path d="M285.42,386c5.31,3.07,13.93,3.07,19.24,0s5.32-8,0-11.11-13.93-3.07-19.24,0S280.1,382.92,285.42,386Z" style="fill:#fafafa"></path><path d="M286,385.53c5,2.82,13.08,2.82,18.07,0s5-7.39,0-10.2-13.08-2.82-18.07,0S281,382.71,286,385.53Z" style="fill:#ebebeb"></path><path d="M304.07,376.65c-5-2.82-13.08-2.82-18.07,0-2.19,1.24-3.42,2.82-3.68,4.44.26,1.62,1.49,3.2,3.68,4.44,5,2.82,13.08,2.82,18.07,0,2.2-1.24,3.43-2.82,3.69-4.44C307.5,379.47,306.27,377.89,304.07,376.65Z" style="fill:#f5f5f5"></path><path d="M281.43,403c0,2,1.31,4.05,4,5.6,5.31,3.06,13.93,3.06,19.24,0,2.66-1.54,4-3.55,4-5.56V384.86c0,2-1.33,4-4,5.55-5.31,3.07-13.93,3.07-19.24,0-2.68-1.54-4-3.57-4-5.59Z" style="fill:#BA68C8"></path><path d="M281.43,403c0,2,1.31,4.05,4,5.6,5.31,3.06,13.93,3.06,19.24,0,2.66-1.54,4-3.55,4-5.56V384.86c0,2-1.33,4-4,5.55-5.31,3.07-13.93,3.07-19.24,0-2.68-1.54-4-3.57-4-5.59Z" style="opacity:0.30000000000000004"></path><path d="M300.61,415c-5,1.29-11.09.76-15.19-1.62-2.77-1.59-4.08-3.7-4-5.8h0V380.43c0,2,1.33,4,4,5.56a16.11,16.11,0,0,0,5.57,1.94v23C291,413.18,294.32,415.88,300.61,415Z" style="opacity:0.1"></path><path d="M298.14,385.27l-1.44-.83c-1.17-.68-1.48-1.59-.7-2a4,4,0,0,1,3.54.4l1.45.83c1.17.68,1.48,1.6.7,2.05A4.11,4.11,0,0,1,298.14,385.27Z" style="fill:#e0e0e0"></path><ellipse cx="297.41" cy="383.21" rx="1.1" ry="0.63" style="fill:#f5f5f5"></ellipse><path d="M299.5,385.2a1.7,1.7,0,0,0,1.55,0,.47.47,0,0,0,0-.89,1.7,1.7,0,0,0-1.55,0C299.07,384.56,299.07,385,299.5,385.2Z" style="fill:#f5f5f5"></path></g></g></g></g><g id="freepik--Boxes--inject-3"><g id="freepik--boxes--inject-3"><g id="freepik--box--inject-3"><g id="freepik--box--inject-3"><g id="freepik--back-box--inject-3"><polygon points="35.23 403.36 103.82 363.76 190.06 413.55 121.47 453.15 35.23 403.36"></polygon><polygon points="103.82 363.76 103.82 296.04 33.84 336.45 92.39 370.36 103.82 363.76" style="fill:#37474f"></polygon><polygon points="103.82 296.04 103.82 363.76 132.9 380.55 191.45 346.63 103.82 296.04" style="fill:#263238"></polygon></g><g id="freepik--front-box--inject-3"><polygon points="33.84 336.45 33.84 402.56 121.47 453.15 121.47 387.15 33.84 336.45" style="fill:#263238"></polygon><polygon points="121.47 387.15 121.47 453.15 191.45 412.75 191.45 346.63 121.47 387.15" style="fill:#37474f"></polygon><polygon points="121.47 387.15 122.85 450.63 173.67 423.01 121.47 453.15 121.47 387.15" style="fill:#455a64"></polygon></g><path d="M129.83,431.92a1.38,1.38,0,0,1-.71-.19,2.18,2.18,0,0,1-.9-2V423.9h0v-.43l.3.05,4.58-2.69v6.53a5.3,5.3,0,0,1-2.25,4.27A2.05,2.05,0,0,1,129.83,431.92Zm-.87-7.59v5.42a1.5,1.5,0,0,0,.52,1.34,1,1,0,0,0,1-.11,4.63,4.63,0,0,0,1.89-3.63v-.48h-1.7l-.33-2.29Zm2.35,1.81h1.06v-4l-2.74,1.61L131,424Z" style="fill:#e0e0e0"></path><path d="M130.66,436.58a.37.37,0,0,1-.37-.37V431.3a.38.38,0,0,1,.37-.37.37.37,0,0,1,.37.37v4.91A.36.36,0,0,1,130.66,436.58Z" style="fill:#e0e0e0"></path><path d="M128.53,437.81a.36.36,0,0,1-.32-.18.37.37,0,0,1,.13-.5l4.27-2.47a.38.38,0,0,1,.51.14.37.37,0,0,1-.14.5l-4.27,2.46A.31.31,0,0,1,128.53,437.81Z" style="fill:#e0e0e0"></path><path d="M143.74,429.35a.79.79,0,0,1-.4-.1,1,1,0,0,1-.44-.88v-1a.37.37,0,1,1,.73,0v1a.32.32,0,0,0,.07.24s.12,0,.24-.06a2.14,2.14,0,0,0,.69-1.66v-6.53a.37.37,0,1,1,.73,0v6.53a2.8,2.8,0,0,1-1,2.29A1.1,1.1,0,0,1,143.74,429.35Z" style="fill:#e0e0e0"></path><path d="M139.87,423.64V423a10.42,10.42,0,0,1,4.7-8.15,3.11,3.11,0,0,1,5.07,2.93V418Zm6.9-8.71a3.72,3.72,0,0,0-1.83.57,9.71,9.71,0,0,0-4.3,6.85l8.26-4.77a2.73,2.73,0,0,0-1.13-2.4A2,2,0,0,0,146.77,414.93Z" style="fill:#e0e0e0"></path><path d="M156.94,421.83a.37.37,0,0,1-.36-.37V409a.37.37,0,1,1,.73,0v12.51A.37.37,0,0,1,156.94,421.83Z" style="fill:#e0e0e0"></path><path d="M155.87,411.8a.4.4,0,0,1-.15,0,.37.37,0,0,1-.19-.48l1.31-3L158.3,410a.37.37,0,0,1,0,.52.38.38,0,0,1-.52,0l-.69-.8-.84,1.95A.37.37,0,0,1,155.87,411.8Z" style="fill:#e0e0e0"></path><path d="M160.34,419.89a.37.37,0,0,1-.36-.37V407a.37.37,0,1,1,.73,0v12.51A.37.37,0,0,1,160.34,419.89Z" style="fill:#e0e0e0"></path><path d="M159.27,409.86a.4.4,0,0,1-.15,0,.37.37,0,0,1-.19-.48l1.31-3L161.7,408a.37.37,0,0,1-.56.48l-.69-.8-.84,1.95A.37.37,0,0,1,159.27,409.86Z" style="fill:#e0e0e0"></path><path d="M48.83,383.38l19.1,11a1.92,1.92,0,0,1,.87,1.5v13.27c0,1.1-.78,1.54-1.72,1L48,399.14a1.91,1.91,0,0,1-.86-1.49V384.37C47.11,383.28,47.89,382.83,48.83,383.38Z" style="fill:#fafafa"></path><polygon points="48.36 385.44 49.01 385.82 49.01 397.54 48.36 397.17 48.36 385.44" style="fill:#455a64"></polygon><polygon points="51 386.97 52.12 387.63 52.12 399.35 51 398.69 51 386.97" style="fill:#455a64"></polygon><polygon points="53.65 388.5 54.3 388.87 54.3 400.59 53.65 400.22 53.65 388.5" style="fill:#455a64"></polygon><polygon points="55.64 389.63 56.95 390.4 56.94 402.12 55.64 401.35 55.64 389.63" style="fill:#455a64"></polygon><polygon points="58.94 391.55 59.59 391.93 59.59 403.65 58.94 403.27 58.94 391.55" style="fill:#455a64"></polygon><polygon points="60.84 392.63 62.24 393.45 62.24 405.18 60.84 404.35 60.84 392.63" style="fill:#455a64"></polygon><polygon points="64.23 394.61 64.88 394.98 64.88 406.7 64.23 406.33 64.23 394.61" style="fill:#455a64"></polygon><polygon points="65.74 395.46 66.07 395.65 66.07 407.37 65.74 407.19 65.74 395.46" style="fill:#455a64"></polygon><polygon points="63.02 393.97 63.35 394.15 63.35 405.88 63.02 405.69 63.02 393.97" style="fill:#455a64"></polygon><polygon points="57.7 390.85 58.02 391.03 58.02 402.75 57.7 402.57 57.7 390.85" style="fill:#455a64"></polygon><polygon points="54.78 389.17 55.1 389.36 55.1 401.08 54.78 400.89 54.78 389.17" style="fill:#455a64"></polygon><polygon points="52.68 388.01 53.01 388.2 53.01 399.92 52.68 399.73 52.68 388.01" style="fill:#455a64"></polygon><polygon points="49.84 386.29 50.16 386.48 50.16 398.2 49.84 398.01 49.84 386.29" style="fill:#455a64"></polygon><polygon points="66.88 396.13 67.53 396.51 67.53 408.23 66.88 407.85 66.88 396.13" style="fill:#455a64"></polygon></g><polygon points="103.82 296.04 33.84 336.45 121.47 387.15 191.45 346.63 103.82 296.04" style="fill:#455a64"></polygon><polygon points="33.84 336.45 121.47 384.64 191.45 346.63 121.47 387.15 33.84 336.45" style="fill:#fff;opacity:0.1"></polygon><polygon points="62.88 319.68 150.56 370.3 161.34 364.07 73.66 313.45 62.88 319.68" style="fill:#BA68C8"></polygon><polygon points="161.34 364.06 161.34 377.76 160.04 377.02 158.68 379.36 157.33 378.56 155.97 380.93 154.62 380.13 153.26 382.46 151.91 381.69 150.56 384.03 150.56 370.3 161.34 364.06" style="fill:#BA68C8"></polygon><polygon points="161.34 364.06 161.34 377.76 160.04 377.02 158.68 379.36 157.33 378.56 155.97 380.93 154.62 380.13 153.26 382.46 151.91 381.69 150.56 384.03 150.56 370.3 161.34 364.06" style="opacity:0.25"></polygon></g><polygon points="100.43 300.43 39.4 335.66 116.19 380.15 177.22 344.8 100.43 300.43" style="opacity:0.1"></polygon><g id="freepik--box--inject-3"><g id="freepik--box--inject-3"><g id="freepik--back-box--inject-3"><polygon points="51.01 337.39 102.02 307.86 166.87 345.32 115.86 374.77 51.01 337.39"></polygon><polygon points="102.02 301.59 102.02 243.39 49.81 273.53 100.36 302.75 102.02 301.59" style="fill:#37474f"></polygon><polygon points="102.02 243.39 102.02 301.59 117.68 310.65 168.06 281.47 102.02 243.39" style="fill:#263238"></polygon></g><g id="freepik--front-box--inject-3"><polygon points="49.81 273.53 49.81 336.7 115.86 374.77 115.86 311.7 49.81 273.53" style="fill:#263238"></polygon><polygon points="115.86 311.7 115.86 374.77 168.06 344.63 168.06 281.47 115.86 311.7" style="fill:#37474f"></polygon><polygon points="115.86 311.7 117.05 372.6 160.78 348.83 115.86 374.77 115.86 311.7" style="fill:#455a64"></polygon></g><path d="M123.06,356.5a1.22,1.22,0,0,1-.62-.16,1.88,1.88,0,0,1-.77-1.71v-5h0v-.37l.25,0,4-2.31v5.62a4.54,4.54,0,0,1-1.94,3.67A1.8,1.8,0,0,1,123.06,356.5ZM122.3,350v4.66a1.3,1.3,0,0,0,.46,1.16.88.88,0,0,0,.85-.09,4,4,0,0,0,1.63-3.13v-.41h-1.46l-.29-2Zm2,1.55h.92v-3.47l-2.36,1.38,1.17.21Z" style="fill:#e0e0e0"></path><path d="M123.77,360.51a.31.31,0,0,1-.32-.31V356a.32.32,0,0,1,.32-.32.32.32,0,0,1,.32.32v4.23A.32.32,0,0,1,123.77,360.51Z" style="fill:#e0e0e0"></path><path d="M121.93,361.57a.3.3,0,0,1-.27-.16.31.31,0,0,1,.11-.43l3.68-2.12a.32.32,0,0,1,.31.55l-3.67,2.12A.29.29,0,0,1,121.93,361.57Z" style="fill:#e0e0e0"></path><path d="M135,354.29a.67.67,0,0,1-.34-.09.82.82,0,0,1-.38-.76v-.86a.32.32,0,1,1,.63,0v.86a.33.33,0,0,0,.06.22.32.32,0,0,0,.21-.06,1.84,1.84,0,0,0,.59-1.43v-5.62a.32.32,0,1,1,.63,0v5.62a2.45,2.45,0,0,1-.9,2A1.08,1.08,0,0,1,135,354.29Z" style="fill:#e0e0e0"></path><path d="M131.69,349.38v-.55a9,9,0,0,1,4.05-7,2.68,2.68,0,0,1,4.36,2.52v.18Zm5.94-7.5a3.19,3.19,0,0,0-1.58.49,8.38,8.38,0,0,0-3.7,5.9l7.11-4.11a2.33,2.33,0,0,0-1-2.06A1.64,1.64,0,0,0,137.63,341.88Z" style="fill:#e0e0e0"></path><path d="M146.38,347.82a.32.32,0,0,1-.31-.32V336.73a.32.32,0,0,1,.63,0V347.5A.32.32,0,0,1,146.38,347.82Z" style="fill:#e0e0e0"></path><path d="M145.46,339.19l-.12,0a.3.3,0,0,1-.17-.41l1.13-2.61,1.25,1.46a.31.31,0,0,1,0,.44.33.33,0,0,1-.45,0l-.59-.69-.73,1.68A.31.31,0,0,1,145.46,339.19Z" style="fill:#e0e0e0"></path><path d="M149.31,346.15a.31.31,0,0,1-.31-.32V335.06a.32.32,0,0,1,.63,0v10.77A.32.32,0,0,1,149.31,346.15Z" style="fill:#e0e0e0"></path><path d="M148.39,337.52a.28.28,0,0,1-.13,0,.31.31,0,0,1-.16-.41l1.12-2.6,1.26,1.45a.31.31,0,0,1,0,.44.33.33,0,0,1-.45,0l-.6-.69-.72,1.68A.33.33,0,0,1,148.39,337.52Z" style="fill:#e0e0e0"></path></g><polygon points="102.02 243.39 49.81 273.53 115.86 311.7 168.06 281.47 102.02 243.39" style="fill:#455a64"></polygon><polygon points="49.81 273.53 115.61 309.45 168.06 281.47 115.86 311.7 49.81 273.53" style="fill:#fff;opacity:0.1"></polygon><polygon points="73.02 260.14 139.11 298.24 148.38 292.88 82.3 254.78 73.02 260.14" style="fill:#BA68C8"></polygon><polygon points="148.38 292.87 148.38 304.66 147.26 304.02 146.1 306.03 144.93 305.35 143.77 307.38 142.6 306.69 141.44 308.71 140.27 308.04 139.1 310.06 139.1 298.24 148.38 292.87" style="fill:#BA68C8"></polygon><polygon points="148.38 292.87 148.38 304.66 147.26 304.02 146.1 306.03 144.93 305.35 143.77 307.38 142.6 306.69 141.44 308.71 140.27 308.04 139.1 310.06 139.1 298.24 148.38 292.87" style="opacity:0.25"></polygon><path d="M60.51,321.35l19.1,11a1.91,1.91,0,0,1,.86,1.5v13.27c0,1.1-.78,1.54-1.73,1l-19.1-11a1.91,1.91,0,0,1-.86-1.49V322.34C58.79,321.25,59.56,320.8,60.51,321.35Z" style="fill:#fafafa"></path><polygon points="60.04 323.41 60.69 323.79 60.69 335.51 60.04 335.13 60.04 323.41" style="fill:#455a64"></polygon><polygon points="62.68 324.94 63.8 325.6 63.8 337.32 62.68 336.66 62.68 324.94" style="fill:#455a64"></polygon><polygon points="65.33 326.47 65.98 326.84 65.98 338.56 65.33 338.19 65.33 326.47" style="fill:#455a64"></polygon><polygon points="67.32 327.6 68.62 328.37 68.62 340.09 67.32 339.32 67.32 327.6" style="fill:#455a64"></polygon><polygon points="70.62 329.52 71.27 329.9 71.27 341.62 70.62 341.24 70.62 329.52" style="fill:#455a64"></polygon><polygon points="72.52 330.6 73.91 331.42 73.91 343.14 72.52 342.32 72.52 330.6" style="fill:#455a64"></polygon><polygon points="75.91 332.57 76.56 332.95 76.56 344.67 75.91 344.29 75.91 332.57" style="fill:#455a64"></polygon><polygon points="77.42 333.43 77.74 333.62 77.74 345.34 77.42 345.15 77.42 333.43" style="fill:#455a64"></polygon><polygon points="74.7 331.94 75.03 332.12 75.03 343.84 74.7 343.66 74.7 331.94" style="fill:#455a64"></polygon><polygon points="69.38 328.81 69.7 329 69.7 340.72 69.37 340.54 69.38 328.81" style="fill:#455a64"></polygon><polygon points="66.46 327.14 66.78 327.33 66.78 339.05 66.46 338.86 66.46 327.14" style="fill:#455a64"></polygon><polygon points="64.36 325.98 64.68 326.17 64.68 337.89 64.36 337.7 64.36 325.98" style="fill:#455a64"></polygon><polygon points="61.52 324.26 61.84 324.44 61.84 336.16 61.52 335.98 61.52 324.26" style="fill:#455a64"></polygon><polygon points="78.56 334.1 79.21 334.48 79.2 346.2 78.56 345.82 78.56 334.1" style="fill:#455a64"></polygon></g></g></g><g id="freepik--Barcode--inject-3"><g id="freepik--barcode--inject-3"><polygon points="197.17 159.81 43.62 248.46 43.62 107.53 197.17 18.88 197.17 159.81" style="fill:#fff"></polygon><path d="M43.61,249.51a1,1,0,0,1-.52-.14,1,1,0,0,1-.53-.91V107.53a1.05,1.05,0,0,1,.53-.91L196.64,18a1.06,1.06,0,0,1,1.58.91V159.8a1.06,1.06,0,0,1-.53.92L44.14,249.37A1,1,0,0,1,43.61,249.51Zm1.06-141.37V246.63l151.44-87.44V20.71Zm152.5,51.66h0Z" style="fill:#e0e0e0"></path><path d="M127.16,73.76l-3.47,2v82.66l3.47-2Zm-65.25,150,1.73-1V110.38l-1.74,1ZM70.65,106.4l-3.47,2v82.66l3.47-2Zm19.43,87.18a2.43,2.43,0,0,0-1.72-.5,5.05,5.05,0,0,0-2.11.72,7.11,7.11,0,0,0-2,1.6,14.3,14.3,0,0,0-.93,1.25l.47-8.09,6.45-3.73a1.11,1.11,0,0,0,.5-1.05v-.55c0-.51-.17-.67-.5-.48L82.94,187a1.24,1.24,0,0,0-.49,1.08l-.68,11.7a.59.59,0,0,0,.14.47.29.29,0,0,0,.36,0l.41-.23a1.83,1.83,0,0,0,.64-.7c.18-.33.4-.69.65-1.09a13.55,13.55,0,0,1,.9-1.23,4.9,4.9,0,0,1,1.38-1.12,3.53,3.53,0,0,1,1.56-.53,1.86,1.86,0,0,1,1.27.38,2.67,2.67,0,0,1,.86,1.29,6.65,6.65,0,0,1,.31,2.23,11.65,11.65,0,0,1-.31,2.75,10.53,10.53,0,0,1-.86,2.39,8.8,8.8,0,0,1-1.27,1.89,6.07,6.07,0,0,1-1.56,1.3,4,4,0,0,1-1.2.47A1.84,1.84,0,0,1,84,208a2,2,0,0,1-.88-.79,4.44,4.44,0,0,1-.55-1.62c-.06-.32-.14-.49-.24-.52a.37.37,0,0,0-.32,0l-.43.25a.88.88,0,0,0-.34.37.94.94,0,0,0-.11.55,6.08,6.08,0,0,0,.38,2.13,3.38,3.38,0,0,0,1,1.46,2.49,2.49,0,0,0,1.6.53,4.41,4.41,0,0,0,2.18-.7,8.87,8.87,0,0,0,2.11-1.73,10.4,10.4,0,0,0,1.72-2.51,14.4,14.4,0,0,0,1.16-3.2,15.71,15.71,0,0,0,.43-3.79,9.25,9.25,0,0,0-.43-3.1A3.66,3.66,0,0,0,90.08,193.58Zm-12.69-1.17a2.63,2.63,0,0,0-1.67-.89,3.81,3.81,0,0,0-2.35.65A8,8,0,0,0,71,194.24a13,13,0,0,0-1.67,2.81A15.76,15.76,0,0,0,68,203.24a10.84,10.84,0,0,0,.32,2.69,4.74,4.74,0,0,0,1,2,2.69,2.69,0,0,0,1.67.88,3.9,3.9,0,0,0,2.35-.65A7.77,7.77,0,0,0,74.83,207l-3.55,9.74a1,1,0,0,0-.08.21.91.91,0,0,0,0,.3.67.67,0,0,0,.13.46.22.22,0,0,0,.32,0l.45-.26a1,1,0,0,0,.45-.52c.09-.22.18-.41.25-.57l4.63-12.75c.14-.36.28-.77.43-1.25s.29-1,.43-1.57.24-1.15.33-1.78a14,14,0,0,0,.14-2,10.36,10.36,0,0,0-.33-2.68A4.74,4.74,0,0,0,77.39,192.41Zm-.4,8.11a11.19,11.19,0,0,1-.86,2.34,9.33,9.33,0,0,1-1.25,1.9,6.08,6.08,0,0,1-1.51,1.29,3.06,3.06,0,0,1-1.5.45,1.92,1.92,0,0,1-1.24-.46,2.91,2.91,0,0,1-.86-1.36,7,7,0,0,1-.31-2.26,10.94,10.94,0,0,1,.31-2.63,10.72,10.72,0,0,1,.86-2.37,8.9,8.9,0,0,1,1.24-1.9,5.88,5.88,0,0,1,1.5-1.28,3,3,0,0,1,1.51-.45,1.9,1.9,0,0,1,1.25.45,3,3,0,0,1,.86,1.38,7.07,7.07,0,0,1,.31,2.27A11,11,0,0,1,77,200.52Zm13.28-22.39,1.73-1V94.46l-1.74,1ZM58,226l1.73-1V112.65l-1.74,1ZM98.91,90.08l-3.47,2v82.66l3.47-2Zm4.29-2.36-1.74,1v82.66l1.74-1Zm-26.37,15-1.74,1v82.67l1.74-1Zm10.46-5.91-6,3.39v82.66l6-3.39ZM166,51.27l-1.73,1v82.66l1.74-1Zm-4.79,90.52-8.69,5a1.15,1.15,0,0,0-.49,1.08v.52c0,.51.17.66.49.48l7.68-4.43-5.78,24.42a1.37,1.37,0,0,0,0,.33.69.69,0,0,0,.13.47.23.23,0,0,0,.32,0l.47-.28a.82.82,0,0,0,.37-.5c.08-.25.16-.48.22-.7l5.69-24.06c.05-.26.1-.49.12-.67a6.81,6.81,0,0,0,0-.7v-.52C161.72,141.76,161.55,141.6,161.21,141.79Zm-15.7,33.31,1.73-1V62.47l-1.73,1ZM160,137.39l1.74-1V53.73l-1.73,1Zm-4.58-79.95-3.47,2v82.66l3.47-2ZM173.21,157l-7.53,4.35,5.26-11.28a29,29,0,0,0,1.85-4.49,14.48,14.48,0,0,0,.6-4.16,11.26,11.26,0,0,0-.25-2.48,3.9,3.9,0,0,0-.84-1.77,2.11,2.11,0,0,0-1.47-.71,4,4,0,0,0-2.18.67,7.34,7.34,0,0,0-2.21,1.95,11.68,11.68,0,0,0-1.51,2.61,14.14,14.14,0,0,0-.89,2.84,16,16,0,0,0-.32,2.64c0,.45.16.57.48.39l.45-.26a1,1,0,0,0,.3-.36,1.9,1.9,0,0,0,.21-.73,12.41,12.41,0,0,1,1.06-4.23,6,6,0,0,1,2.43-2.77c1.08-.63,1.9-.67,2.47-.11a4.34,4.34,0,0,1,.86,3.14,12.3,12.3,0,0,1-.09,1.52,9.48,9.48,0,0,1-.33,1.54,15,15,0,0,1-.64,1.77c-.27.64-.61,1.38-1,2.23l-5.83,12.33a7.46,7.46,0,0,0-.44,1,2.64,2.64,0,0,0-.12.74v.52c0,.51.17.67.5.48l9.21-5.32a1.13,1.13,0,0,0,.52-1.07v-.51C173.73,157,173.56,156.82,173.21,157Zm-69.27,20.37a2.44,2.44,0,0,0-1.65-1.14,3.87,3.87,0,0,0-2.55.69,8.38,8.38,0,0,0-2.55,2.25,12.44,12.44,0,0,0-1.65,3.05,17,17,0,0,0-.9,3.57,28.34,28.34,0,0,0-.29,3.8q0,3,0,5.82a20.15,20.15,0,0,0,.3,3.45,6.86,6.86,0,0,0,.9,2.54,2.43,2.43,0,0,0,1.64,1.14,3.87,3.87,0,0,0,2.55-.69,8.38,8.38,0,0,0,2.55-2.25,12.44,12.44,0,0,0,1.65-3.05,17.33,17.33,0,0,0,.88-3.56,32.09,32.09,0,0,0,.32-3.81q0-2.87,0-5.82a21.28,21.28,0,0,0-.31-3.46A6.87,6.87,0,0,0,103.94,177.39Zm-.22,12.45a18.52,18.52,0,0,1-1,6.19,6.85,6.85,0,0,1-3,3.76c-1.33.77-2.32.66-3-.33s-1-2.66-1-5c0-1,0-1.89,0-2.73s0-1.75,0-2.73a18.43,18.43,0,0,1,1-6.16,6.88,6.88,0,0,1,3-3.79c1.32-.76,2.31-.64,3,.37a9.81,9.81,0,0,1,1,5q0,1.44,0,2.7C103.75,187.92,103.74,188.84,103.72,189.84Zm67.1-58.63,3.47-2V46.54l-3.47,2ZM179,43.84V155.77l3.47-2V41.84ZM116.5,167.61l-8.69,5a1.15,1.15,0,0,0-.49,1.08v.52c0,.5.17.66.49.48l7.67-4.43L109.7,194.7a1.86,1.86,0,0,0,0,.33.76.76,0,0,0,.12.47.24.24,0,0,0,.33,0l.47-.28a.82.82,0,0,0,.37-.5l.22-.7L116.86,170c0-.26.1-.49.12-.67a6.81,6.81,0,0,0,0-.7v-.52C117,167.58,116.84,167.42,116.5,167.61Zm.55-5.28,1.73-1V78.67l-1.73,1Zm16.81-9.9,7.43-4.16V65.6l-7.43,4.16ZM113,81.92l-7,3.91v82.66l6.94-3.9Zm23.81,74-.43.24a2.11,2.11,0,0,0-.29.2,1.93,1.93,0,0,0-.3.38L131,165.13a1.55,1.55,0,0,0-.2.62.88.88,0,0,0,.11.51l.25.34c.2.28.43.19.7-.26l4-7.1v20.63c0,.51.17.67.5.48l.43-.25a1.1,1.1,0,0,0,.49-1V156.34C137.34,155.83,137.18,155.67,136.85,155.87Zm-8.35,27L121,187.19l5.26-11.28a29,29,0,0,0,1.85-4.49,14.48,14.48,0,0,0,.6-4.16,10.67,10.67,0,0,0-.26-2.48,3.75,3.75,0,0,0-.83-1.77,2.11,2.11,0,0,0-1.47-.71,3.93,3.93,0,0,0-2.18.67,7.34,7.34,0,0,0-2.21,1.95,11.68,11.68,0,0,0-1.51,2.61,14.14,14.14,0,0,0-.89,2.84A15,15,0,0,0,119,173c0,.45.16.57.48.39l.44-.26a1,1,0,0,0,.31-.36,1.9,1.9,0,0,0,.21-.73,12.18,12.18,0,0,1,1.06-4.23,6,6,0,0,1,2.43-2.77c1.08-.63,1.9-.67,2.47-.11s.85,1.59.85,3.14a12.35,12.35,0,0,1-.08,1.52,9.48,9.48,0,0,1-.33,1.54,17,17,0,0,1-.64,1.77c-.27.64-.61,1.38-1,2.23l-5.83,12.32a6.84,6.84,0,0,0-.44,1,2.59,2.59,0,0,0-.12.74v.52c0,.51.16.67.5.48l9.21-5.32a1.13,1.13,0,0,0,.52-1.07v-.51C129,182.8,128.85,182.64,128.5,182.84Z" style="fill:#455a64"></path></g></g></svg>